<svg width="29" height="140" viewBox="0 0 29 140" fill="none" xmlns="http://www.w3.org/2000/svg">
<path d="M12.2686 30.4814V27.9081C12.2686 24.4038 11.3222 24.442 9.67962 21.7077C8.35193 19.4982 7.73645 17.7667 7.73645 14.2846V10.0006H9.13744" stroke="#36E2DE" stroke-miterlimit="10" stroke-linecap="round" stroke-linejoin="round"/>
<path d="M12.5239 31.4034H16.808V87.1597H12.5239V31.4034Z" stroke="#36E2DE" stroke-miterlimit="10" stroke-linecap="round" stroke-linejoin="round"/>
<path d="M20.1947 14.2847H9.1377V10.0006H20.1947V14.2847Z" stroke="#36E2DE" stroke-miterlimit="10" stroke-linecap="round" stroke-linejoin="round"/>
<path d="M16.7647 96.8438L17.0301 87.1596H12.3019L12.5673 96.8438" stroke="#36E2DE" stroke-miterlimit="10" stroke-linecap="round" stroke-linejoin="round"/>
<path d="M12.5674 96.8435L10.6347 98.1335H2.7926C2.53669 98.1335 2.06348 98.1799 2.06348 98.9944C2.06348 99.809 2.30984 113.772 2.4057 116.285C2.72276 124.616 11.6123 130 14.6659 130" stroke="#36E2DE" stroke-miterlimit="10" stroke-linecap="round" stroke-linejoin="round"/>
<path d="M10.6349 98.1336C10.8427 105.316 12.1738 118.472 12.9038 121.427C13.0812 122.145 13.7188 123.194 14.6661 123.194" stroke="#36E2DE" stroke-miterlimit="10" stroke-linecap="round" stroke-linejoin="round"/>
<path d="M12.5675 96.8436C12.6759 104.19 13.3686 117.648 13.7486 120.672C13.841 121.406 14.1728 122.479 14.6659 122.479" stroke="#36E2DE" stroke-miterlimit="10" stroke-linecap="round" stroke-linejoin="round"/>
<path d="M16.7647 96.8436C16.6563 104.19 15.9636 117.648 15.5836 120.672C15.4912 121.406 15.1594 122.479 14.6663 122.479" stroke="#36E2DE" stroke-miterlimit="10" stroke-linecap="round" stroke-linejoin="round"/>
<path d="M18.6973 98.1336C18.4896 105.316 17.1584 118.472 16.4284 121.427C16.251 122.145 15.6134 123.194 14.6661 123.194" stroke="#36E2DE" stroke-miterlimit="10" stroke-linecap="round" stroke-linejoin="round"/>
<path d="M16.7647 96.8435L18.6975 98.1335H26.5395C26.7954 98.1335 27.2686 98.1799 27.2686 98.9944C27.2686 99.809 27.0218 113.772 26.9264 116.285C26.6094 124.616 17.7198 130 14.6663 130" stroke="#36E2DE" stroke-miterlimit="10" stroke-linecap="round" stroke-linejoin="round"/>
<path d="M20.1947 14.2848C20.1947 17.7665 19.5792 19.4984 18.2519 21.7079C18.2519 21.7079 15.5384 24.5688 14.6662 24.5688C13.7939 24.5688 11.0804 21.7079 11.0804 21.7079C9.75318 19.4984 9.1377 17.7665 9.1377 14.2848" stroke="#36E2DE" stroke-miterlimit="10" stroke-linecap="round" stroke-linejoin="round"/>
<path d="M17.0635 31.4033H12.2684V30.4816H17.0635V31.4033Z" stroke="#36E2DE" stroke-miterlimit="10" stroke-linecap="round" stroke-linejoin="round"/>
<path d="M17.0635 30.4814V27.9081C17.0635 24.4038 18.0099 24.442 19.6525 21.7077C20.9802 19.4982 21.5957 17.7667 21.5957 14.2846V10.0006H20.1947" stroke="#36E2DE" stroke-miterlimit="10" stroke-linecap="round" stroke-linejoin="round"/>
<path d="M15.4652 28.4721C15.4652 28.9136 15.1073 29.2715 14.6662 29.2715C14.2247 29.2715 13.8668 28.9136 13.8668 28.4721C13.8668 28.0305 14.2247 27.6731 14.6662 27.6731C15.1073 27.6731 15.4652 28.0305 15.4652 28.4721Z" stroke="#36E2DE" stroke-miterlimit="10" stroke-linecap="round" stroke-linejoin="round"/>
<path d="M16.9666 89.473C17.1557 89.5046 17.2997 89.669 17.2997 89.8668C17.2997 90.0724 17.1445 90.2416 16.9449 90.2637" stroke="#36E2DE" stroke-miterlimit="10" stroke-linecap="round" stroke-linejoin="round"/>
<path d="M16.9666 89.473C17.1557 89.5046 17.2997 89.669 17.2997 89.8668C17.2997 90.0724 17.1445 90.2416 16.9449 90.2637" stroke="#36E2DE" stroke-miterlimit="10" stroke-linecap="round" stroke-linejoin="round"/>
<path d="M12.3653 89.473C12.1762 89.5046 12.0322 89.669 12.0322 89.8668C12.0322 90.0724 12.1875 90.2416 12.387 90.2637" stroke="#36E2DE" stroke-miterlimit="10" stroke-linecap="round" stroke-linejoin="round"/>
</svg>
