<svg width="29" height="140" viewBox="0 0 29 140" fill="none" xmlns="http://www.w3.org/2000/svg">
<path d="M11.9348 30.4818L12.1946 12.1429" stroke="#E2363F" stroke-miterlimit="10" stroke-linecap="round" stroke-linejoin="round"/>
<path d="M12.1902 31.4035H16.4743V87.1599H12.1902V31.4035Z" stroke="#E2363F" stroke-miterlimit="10" stroke-linecap="round" stroke-linejoin="round"/>
<path d="M15.0201 96.844L16.1487 96.844L16.474 94.7048" stroke="#E2363F" stroke-miterlimit="10" stroke-linecap="round" stroke-linejoin="round"/>
<path d="M11.4958 107.273C11.4958 107.273 11.8079 102.825 11.9245 98.1312M11.9245 98.1312C13.2118 98.5786 13.1993 100.12 13.0322 100.792C11.7522 107.001 9.544 114.247 8.59989 117.094C8.16747 118.581 6.64649 126.34 5.9258 130.001H6.1636C6.38845 129.43 9.48634 121.627 11.0214 117.829C11.3155 116.964 11.7748 115.22 11.9677 114.456C12.7766 111.619 13.836 105.678 14.2646 103.062C14.4591 101.527 14.7835 97.9419 15.0213 96.8608C15.2115 95.996 15.77 95.6191 16.2104 95.0879C16.6508 94.5568 16.6959 94.1077 16.6959 93.6231V87.1598H11.9677C11.9677 87.1598 11.9677 89.2811 11.9677 94.981C11.9677 96.0313 11.9505 97.0813 11.9245 98.1312Z" stroke="#E2363F" stroke-miterlimit="10" stroke-linecap="round" stroke-linejoin="round"/>
<path d="M15.0677 30.4818C15.0297 28.212 14.787 24.0541 14.6538 23.1201C14.6214 22.8932 14.5051 22.5615 14.3322 22.5615" stroke="#E2363F" stroke-miterlimit="10" stroke-linecap="round" stroke-linejoin="round"/>
<path d="M13.5966 30.4818C13.6346 28.212 13.8774 24.0541 14.0106 23.1201C14.043 22.8932 14.1593 22.5615 14.3322 22.5615" stroke="#E2363F" stroke-miterlimit="10" stroke-linecap="round" stroke-linejoin="round"/>
<path d="M16.7297 31.4036H11.9346V30.4819H16.7297V31.4036Z" stroke="#E2363F" stroke-miterlimit="10" stroke-linecap="round" stroke-linejoin="round"/>
<path d="M16.73 30.4818L16.4715 12.141" stroke="#E2363F" stroke-miterlimit="10" stroke-linecap="round" stroke-linejoin="round"/>
<ellipse cx="14.3325" cy="89.866" rx="0.398175" ry="0.398174" stroke="#E2363F"/>
<ellipse cx="14.3324" cy="12.1429" rx="1.5032" ry="1.5032" stroke="#E2363F"/>
<path d="M16.4742 12.1428C16.4742 10.9599 15.5153 10.001 14.3324 10.001C13.1495 10.001 12.1906 10.9599 12.1906 12.1428" stroke="#E2363F"/>
</svg>
