<svg width="24" height="24" viewBox="0 0 24 24" fill="none" xmlns="http://www.w3.org/2000/svg">
<circle cx="12" cy="12" r="4" fill="#E2363F"/>
<path fill-rule="evenodd" clip-rule="evenodd" d="M2.19989 10C3.12535 5.4373 7.15487 2 11.99 2C16.8339 2 20.8722 5.4373 21.7997 10H19.74H16.36H14.34H9.66H7.64H4.26H2.19989ZM2.19989 14C3.12535 18.5627 7.15487 22 11.99 22C16.8339 22 20.8722 18.5627 21.7997 14H19.74H16.36H14.34H9.66H7.64H4.26H2.19989ZM15.97 8H18.92C17.96 6.35 16.43 5.07 14.59 4.44C15.19 5.55 15.65 6.75 15.97 8ZM13.91 8C13.48 6.57 12.83 5.24 12 4.04C11.17 5.24 10.52 6.57 10.09 8H13.91ZM8.03 16H5.08C6.04 17.66 7.57 18.93 9.41 19.56C8.81 18.45 8.35 17.25 8.03 16ZM5.08 8H8.03C8.35 6.75 8.81 5.55 9.41 4.44C7.57 5.07 6.04 6.34 5.08 8ZM10.09 16C10.52 17.43 11.17 18.76 12 19.96C12.83 18.76 13.48 17.43 13.91 16H10.09ZM15.97 16C15.65 17.25 15.19 18.45 14.59 19.56C16.43 18.93 17.96 17.65 18.92 16H15.97Z" fill="#FADFD4"/>
</svg>
