<svg width="24" height="24" viewBox="0 0 24 24" fill="none" xmlns="http://www.w3.org/2000/svg">
<path d="M21.5424 15H19.4187C18.5741 17.0865 16.8748 18.7356 14.755 19.5131C14.8689 19.2483 14.9738 18.9694 15.0702 18.6802C15.4174 17.6386 15.68 16.3837 15.8361 15H13.8223C13.6778 16.1718 13.4524 17.209 13.1728 18.0477C12.9208 18.8038 12.6427 19.3436 12.3825 19.6738C12.2547 19.8359 12.1508 19.9225 12.0816 19.9649C12.0487 19.9852 12.0266 19.9935 12.0155 19.9969C12.0054 20 12.0003 20 12.0003 20C12.0003 20 11.995 20 11.9849 19.9969C11.9738 19.9935 11.9518 19.9852 11.9188 19.9649C11.8496 19.9225 11.7457 19.8359 11.6179 19.6738C11.3577 19.3436 11.0796 18.8038 10.8276 18.0477C10.548 17.209 10.3226 16.1718 10.1781 15H8.16429C8.32044 16.3837 8.58301 17.6386 8.9302 18.6802C9.02661 18.9694 9.13155 19.2483 9.24542 19.5131C7.12559 18.7356 5.42631 17.0865 4.58172 15H2.45801C3.73227 19.0571 7.52256 22 12.0002 22C16.4778 22 20.2681 19.0571 21.5424 15Z" fill="#FADFD4"/>
<path d="M21.5424 9H19.4187C18.5741 6.91352 16.8748 5.26445 14.755 4.48695C14.8689 4.7517 14.9738 5.03058 15.0702 5.31981C15.4174 6.36138 15.68 7.61631 15.8361 9H13.8223C13.6778 7.82819 13.4524 6.79097 13.1728 5.95227C12.9208 5.19616 12.6427 4.65642 12.3825 4.32624C12.2547 4.16408 12.1508 4.07752 12.0816 4.03507C12.0487 4.01483 12.0266 4.00645 12.0155 4.00305C12.006 4.00016 12.0005 4 12.0005 4C12.0005 4 11.9944 4.00016 11.9849 4.00305C11.9738 4.00645 11.9518 4.01483 11.9188 4.03507C11.8496 4.07752 11.7457 4.16408 11.6179 4.32624C11.3577 4.65642 11.0796 5.19616 10.8276 5.95227C10.548 6.79097 10.3226 7.82819 10.1781 9H8.16429C8.32044 7.61631 8.58301 6.36138 8.9302 5.31981C9.02661 5.03058 9.13155 4.7517 9.24542 4.48695C7.12559 5.26445 5.42631 6.91352 4.58172 9H2.45801C3.73227 4.94289 7.52256 2 12.0002 2C16.4778 2 20.2681 4.94289 21.5424 9Z" fill="#FADFD4"/>
<rect x="2" y="11" width="20" height="2" fill="#E2363F"/>
</svg>
