<svg width="256" height="130" viewBox="0 0 256 130" fill="none" xmlns="http://www.w3.org/2000/svg">
<path d="M127.013 128.746C127.181 128.815 127.362 128.854 127.541 128.885C127.927 128.949 128.335 128.971 128.727 128.985C129.602 129.001 132.437 129.005 133.293 128.989C133.538 128.978 133.79 128.961 134.03 128.91C134.263 128.862 134.498 128.773 134.666 128.598C134.897 128.361 134.976 128.023 135.024 127.705C135.094 127.209 135.099 126.702 135.056 126.203C135.017 125.763 134.931 125.319 134.732 124.922C134.526 124.49 134.168 124.124 133.842 123.779C133.621 123.543 133.411 123.288 133.249 123.006C133.097 122.747 132.988 122.462 132.899 122.176C132.69 121.504 132.572 120.69 132.458 119.994C132.4 119.663 132.323 119.328 132.172 119.026C132.019 118.715 131.799 118.432 131.516 118.231C131.272 118.056 130.981 117.95 130.683 117.918C130.156 117.86 129.636 118.035 129.151 118.225C128.096 118.66 127.066 119.267 126.082 119.844" stroke="#E2363F" stroke-miterlimit="10" stroke-linecap="round" stroke-linejoin="round"/>
<path d="M125.322 118.526C125.409 118.508 125.5 118.467 125.558 118.402C125.629 118.322 125.663 118.223 125.688 118.121C125.76 117.785 125.741 117.43 125.732 117.088C125.671 116.047 125.618 114.713 125.611 113.676C125.613 110.375 125.687 99.7736 125.818 96.4627L125.876 95.3081L125.946 94.1515L127.906 67.7249" stroke="#E2363F" stroke-miterlimit="10" stroke-linecap="round" stroke-linejoin="round"/>
<path d="M121.545 119.158C121.057 119.648 120.783 120.304 120.542 120.941C119.815 122.987 118.86 125.159 119.026 127.372C119.049 127.636 119.09 127.903 119.178 128.153C119.267 128.415 119.427 128.657 119.674 128.792C120.022 128.984 120.437 128.988 120.824 128.997C121.91 128.99 124.639 129.018 125.682 128.977C125.982 128.96 126.292 128.94 126.587 128.882C126.791 128.841 127.002 128.782 127.165 128.648C127.407 128.449 127.44 128.114 127.46 127.821C127.562 125.687 127.179 123.552 126.615 121.5C126.457 120.93 126.279 120.335 126.06 119.786C125.909 119.411 125.73 119.038 125.483 118.716C125.314 118.496 125.111 118.301 124.879 118.149C124.759 118.071 124.631 117.997 124.491 117.962C124.189 117.889 123.875 117.973 123.583 118.052C122.842 118.27 122.101 118.61 121.545 119.158Z" stroke="#E2363F" stroke-miterlimit="10" stroke-linecap="round" stroke-linejoin="round"/>
<path d="M117.641 55.0122C116.699 57.6003 115.908 60.3009 115.711 63.0592C115.646 63.9608 115.651 64.8937 115.707 65.7961C115.887 68.5679 117.238 78.9786 117.57 81.9004C117.861 84.582 118.082 87.3737 118.023 90.0664C117.993 92.4408 117.631 95.3694 117.446 97.749C117.356 98.997 117.306 100.287 117.37 101.536C117.546 105.417 118.755 109.634 119.408 113.457C119.521 114.141 119.629 114.887 119.683 115.576C119.735 116.141 119.726 116.955 119.742 117.526C119.755 117.806 119.769 118.095 119.865 118.361C119.924 118.524 120.031 118.667 120.184 118.752C120.337 118.84 120.515 118.876 120.688 118.895C121.084 118.932 121.492 118.895 121.887 118.863" stroke="#E2363F" stroke-miterlimit="10" stroke-linecap="round" stroke-linejoin="round"/>
<path d="M131.098 118.013C131.289 117.741 131.425 117.43 131.498 117.107C131.642 116.479 131.618 115.616 131.649 114.97C131.777 112.636 132.2 110.298 132.779 108.035C133.242 106.31 133.964 104.354 134.216 102.589C134.722 99.3372 134.387 95.2154 134.863 91.9582C135.7 87.2488 137.585 80.4825 138.706 75.7962C139.114 74.0778 139.482 72.2624 139.711 70.5114C139.945 68.7207 140.069 66.885 140.008 65.0787C139.887 61.6894 139.243 58.2687 138.567 54.9514" stroke="#E2363F" stroke-miterlimit="10" stroke-linecap="round" stroke-linejoin="round"/>
<path d="M134.732 40.7042C134.937 40.9047 135.079 41.1613 135.197 41.4199C135.419 41.9121 135.565 42.4484 135.699 42.9704C135.918 43.7991 136.115 45.0006 136.516 45.7585C136.619 45.9463 136.746 46.1238 136.906 46.2674C137.043 46.3919 137.204 46.4898 137.377 46.5586C137.653 46.6692 137.955 46.7174 138.253 46.7042C138.484 46.6931 138.715 46.6441 138.923 46.5415C139.085 46.4623 139.23 46.3462 139.341 46.2041C139.517 45.9821 139.622 45.7124 139.694 45.441C139.848 44.847 139.866 44.2184 139.883 43.6077C139.899 42.6958 139.867 41.7585 139.577 40.886C139.313 40.0871 138.791 39.4052 138.247 38.775C137.693 38.1444 137.114 37.4656 136.468 36.9293C135.899 36.4364 135.147 36.1145 134.567 35.6363C134.043 35.1951 133.632 34.5943 133.102 34.1595C132.385 33.5416 131.424 33.3061 130.498 33.2512C129.785 33.213 129.059 33.275 128.376 33.4907C127.846 33.6582 127.35 33.9327 126.909 34.2709C126.606 34.5044 126.311 34.7674 126.042 35.0399C125.78 35.3105 125.541 35.6164 125.406 35.9709C125.239 36.3986 125.261 36.8752 125.369 37.3149C125.454 37.6534 125.589 37.9813 125.77 38.2797C125.961 38.5967 126.216 38.8812 126.535 39.0726C126.718 39.1848 126.92 39.2695 127.123 39.3376C128.004 39.6049 129.142 39.805 130.055 39.9829C130.782 40.1114 131.554 40.2399 132.289 40.2872C132.768 40.3274 133.324 40.2956 133.803 40.3266C134.144 40.3537 134.483 40.4595 134.732 40.7042Z" stroke="#E2363F" stroke-miterlimit="10" stroke-linecap="round" stroke-linejoin="round"/>
<path d="M127.067 39.3185C126.53 39.8564 125.862 40.2507 125.18 40.5761C124.772 40.7615 124.349 40.9441 123.899 40.9919C123.134 41.0535 122.296 40.9775 121.554 41.2083C121.388 41.2616 121.225 41.3372 121.094 41.453C120.906 41.6157 120.793 41.8449 120.709 42.074C120.56 42.493 120.34 43.3293 120.202 43.7546C119.912 44.6513 119.584 45.562 119.042 46.341C118.873 46.5793 118.678 46.8037 118.446 46.984C118.181 47.1916 117.871 47.3432 117.543 47.42C117.038 47.5382 116.476 47.4845 116.033 47.2008C115.74 47.0138 115.515 46.7357 115.347 46.4337C115.148 46.076 115.011 45.6826 114.911 45.2867C114.738 44.5797 114.685 43.8318 114.832 43.1156C114.919 42.6895 115.093 42.2837 115.312 41.9093C115.656 41.3082 116.2 40.6887 116.639 40.1504C117.284 39.3977 118.09 38.2785 118.866 37.6662L119.353 37.2815C119.57 37.1068 119.776 36.9127 119.952 36.697C120.452 36.0823 120.889 35.2576 121.435 34.6815C121.66 34.4416 121.926 34.2387 122.222 34.0947C122.563 33.9264 122.938 33.8297 123.311 33.7573C123.935 33.6427 124.602 33.5548 125.233 33.4919C125.648 33.4541 126.082 33.4227 126.499 33.4382C126.678 33.4466 126.86 33.4601 127.033 33.5094C127.117 33.5341 127.199 33.5719 127.271 33.6232C127.365 33.6884 127.447 33.7831 127.535 33.8563" stroke="#E2363F" stroke-miterlimit="10" stroke-linecap="round" stroke-linejoin="round"/>
<path d="M124.439 33.583L124.374 30.7276C124.375 30.716 124.372 30.6941 124.373 30.6826C124.374 30.6086 124.382 30.5326 124.395 30.4598C124.44 30.2175 124.556 29.9883 124.725 29.8089C124.96 29.5571 125.298 29.4063 125.642 29.3995L129.578 29.3088C129.589 29.3088 129.613 29.3084 129.623 29.3084C129.697 29.3092 129.773 29.3168 129.846 29.3303C130.089 29.3753 130.318 29.491 130.497 29.6601C130.683 29.8336 130.815 30.0631 130.873 30.3106C130.889 30.3826 130.901 30.4582 130.905 30.5322C130.904 30.543 130.907 30.566 130.907 30.5772L130.969 33.2957" stroke="#E2363F" stroke-miterlimit="10" stroke-linecap="round" stroke-linejoin="round"/>
<path d="M135.569 42.4783C135.378 42.8176 135.198 43.1733 135.103 43.5521C134.927 44.2571 134.918 45.0019 135.01 45.7204C135.096 46.3223 135.27 46.9458 135.687 47.4057C135.989 47.7419 136.389 47.9746 136.801 48.1493C137.282 48.3486 137.795 48.5038 138.299 48.6351C138.857 48.7735 139.441 48.8606 140.015 48.7882C140.422 48.7389 140.815 48.5965 141.171 48.3963C141.647 48.129 142.069 47.7677 142.442 47.3707C142.916 46.8618 143.324 46.2845 143.653 45.6718C143.998 45.0221 144.264 44.3179 144.366 43.5871C144.451 42.9776 144.405 42.3541 144.315 41.7478C144.213 41.0957 144.033 40.0637 143.972 39.4184C143.91 38.8184 143.894 38.1707 143.891 37.5663C143.92 35.0921 143.908 32.2709 143.731 29.8153C143.683 29.133 143.618 28.4221 143.495 27.7497C143.355 26.9973 143.153 26.2442 142.806 25.5591C142.582 25.1195 142.288 24.7073 141.906 24.3902C141.307 23.8945 140.558 23.6267 139.825 23.3983C138.931 23.1294 137.989 22.8517 137.062 22.7303" stroke="#E2363F" stroke-miterlimit="10" stroke-linecap="round" stroke-linejoin="round"/>
<path d="M138.931 39.6403C139.182 39.1736 139.446 38.6743 139.637 38.1818C139.948 37.3896 140.188 36.5426 140.403 35.7194C140.7 34.5513 140.955 33.3443 141.089 32.1451C141.197 31.1935 141.22 30.198 141.205 29.24" stroke="#E2363F" stroke-miterlimit="10" stroke-linecap="round" stroke-linejoin="round"/>
<path d="M139.588 48.814C140.034 49.1912 140.418 49.6555 140.65 50.1954C141.019 51.0623 141.04 52.0514 140.835 52.9625C140.706 53.4976 140.489 54.0498 140.053 54.4087C139.822 54.5984 139.543 54.7218 139.258 54.8049C138.83 54.9287 138.373 54.9828 137.932 55.0329C136.563 55.1598 134.964 55.2816 133.637 55.6221C132.014 56.0216 130.114 56.5519 128.453 56.6359C126.449 56.752 124.415 56.5627 122.443 56.1962C121.51 56.0267 120.506 55.7204 119.593 55.4594C118.858 55.2553 117.944 55.0703 117.189 54.9231C117.032 54.8893 116.865 54.8511 116.712 54.8002C116.513 54.7349 116.314 54.6402 116.178 54.4759C116.057 54.3331 115.986 54.1552 115.929 53.979C115.83 53.6615 115.779 53.3257 115.786 52.9931C115.791 52.645 115.884 52.3028 116.04 51.9929C116.194 51.6631 116.507 51.2215 116.699 50.9087C116.891 50.6032 117.086 50.2507 117.253 49.93L118.027 48.411" stroke="#E2363F" stroke-miterlimit="10" stroke-linecap="round" stroke-linejoin="round"/>
<path d="M123.001 21.3458C124.096 21.9839 125.044 22.8688 125.78 23.898C126.274 24.5843 126.659 25.3526 126.967 26.1387C127.212 26.7319 127.557 27.7874 127.888 28.3253C127.942 28.4081 128.002 28.4916 128.084 28.5501L128.089 28.5537L128.094 28.5573L128.099 28.5605L128.104 28.5637L128.11 28.5668L128.115 28.5696L128.12 28.5724L128.125 28.5752L128.13 28.5776L128.135 28.58L128.141 28.582L128.146 28.5839L128.151 28.5859L128.156 28.5875L128.161 28.5891C128.165 28.5899 128.168 28.5911 128.168 28.5911C128.172 28.5919 128.176 28.5927 128.176 28.5927C128.179 28.5935 128.183 28.5939 128.183 28.5939C128.186 28.5943 128.19 28.5951 128.19 28.5951C128.193 28.5955 128.197 28.5959 128.197 28.5959C128.201 28.5963 128.204 28.5963 128.204 28.5963C128.208 28.5963 128.211 28.5967 128.211 28.5967C128.215 28.5967 128.219 28.5967 128.219 28.5967C128.222 28.5967 128.226 28.5967 128.226 28.5967C128.229 28.5967 128.233 28.5963 128.233 28.5963C128.236 28.5959 128.24 28.5955 128.24 28.5955C128.325 28.5839 128.389 28.5298 128.446 28.4733C128.526 28.3914 128.592 28.2943 128.653 28.1976C128.875 27.834 129.177 27.1922 129.383 26.8163C129.73 26.169 130.117 25.5053 130.523 24.8934C130.899 24.3293 131.312 23.7743 131.776 23.2785C132.273 22.7291 132.997 22.1371 133.485 21.5793C133.603 21.4425 133.745 21.2487 133.886 21.1373C133.941 21.0931 134.003 21.0565 134.071 21.035C134.194 20.9953 134.326 21.012 134.449 21.0434C134.734 21.1206 134.998 21.269 135.253 21.4134C135.606 21.629 136.133 21.9266 136.476 22.1486C136.572 22.2127 136.671 22.2815 136.76 22.3555C136.846 22.4275 136.929 22.5071 136.992 22.5998C137.053 22.6861 137.092 22.788 137.1 22.8938C137.119 23.1218 137.033 23.388 136.995 23.6116C136.938 23.8972 136.939 24.2167 136.902 24.5051C136.889 24.6042 136.871 24.7053 136.832 24.7976C136.801 24.872 136.745 24.942 136.669 24.9659C136.584 24.9933 136.5 24.9822 136.416 24.9651C136.093 24.8903 135.696 24.6555 135.395 24.5155C135.046 24.3472 134.678 24.2008 134.292 24.153C133.933 24.1065 133.567 24.1447 133.219 24.237C132.459 24.4435 131.755 24.829 131.111 25.2758C130.344 25.8185 129.637 26.4765 129.141 27.2802" stroke="#E2363F" stroke-miterlimit="10" stroke-linecap="round" stroke-linejoin="round"/>
<path d="M127.475 27.452C126.969 26.5485 126.287 25.7472 125.546 25.0283C125.117 24.6217 124.669 24.2147 124.149 23.9282C123.929 23.8089 123.69 23.7158 123.44 23.6883C123.152 23.6545 122.862 23.7007 122.582 23.7603" stroke="#E2363F" stroke-miterlimit="10" stroke-linecap="round" stroke-linejoin="round"/>
<path d="M133.799 21.2157C133.563 21.1532 133.328 21.0741 133.118 20.9467C132.954 20.8485 132.81 20.7188 132.688 20.5712C132.471 20.3066 132.307 19.9995 132.166 19.6879C131.961 19.228 131.803 18.7402 131.731 18.2405" stroke="#E2363F" stroke-miterlimit="10" stroke-linecap="round" stroke-linejoin="round"/>
<path d="M138.664 23.0625C137.973 22.1749 137.339 21.2232 136.903 20.1824C136.54 19.3266 136.294 18.4159 136.106 17.5072C135.846 16.2329 135.694 14.9017 135.603 13.6047C135.488 11.8187 135.421 9.28597 135.109 7.54774C134.903 6.37169 134.566 5.20279 134.03 4.13256C133.634 3.34759 133.118 2.60122 132.42 2.05536C131.817 1.57913 131.089 1.27915 130.338 1.13433C129.587 0.988315 128.811 0.966831 128.05 1.04481C127.178 1.13592 126.316 1.36389 125.522 1.73867C124.517 2.21052 123.647 2.93979 122.925 3.77767C121.601 5.3114 120.747 7.20837 120.285 9.17099C119.926 10.5909 119.645 12.7799 119.395 14.2397C119.01 16.4553 118.585 18.7378 117.766 20.8389C117.224 22.2242 116.424 23.5065 115.567 24.7176" stroke="#E2363F" stroke-miterlimit="10" stroke-linecap="round" stroke-linejoin="round"/>
<path d="M117.435 39.176C116.605 36.2418 116.115 33.1752 115.895 30.1356" stroke="#E2363F" stroke-miterlimit="10" stroke-linecap="round" stroke-linejoin="round"/>
<path d="M119.896 44.6421C119.977 44.88 120.065 45.1295 120.064 45.3833C120.066 45.7438 119.934 46.0903 119.792 46.4166C119.664 46.7018 119.511 46.9807 119.341 47.2433C119.206 47.4498 119.058 47.6535 118.884 47.8293C118.503 48.2161 117.994 48.4396 117.498 48.6406C116.89 48.8773 116.252 49.0603 115.602 49.1375C115.051 49.2031 114.47 49.1773 113.962 48.935C113.101 48.53 112.57 47.6702 112.204 46.8259C111.875 46.0465 111.674 45.2083 111.612 44.3648C111.529 43.3483 111.701 42.0887 111.777 41.0682L111.823 40.3831C111.961 37.5177 112.066 33.9959 112.53 31.1911C112.736 29.9112 112.994 28.6046 113.41 27.3752C113.658 26.6611 113.983 25.9457 114.523 25.4035C114.883 25.035 115.346 24.7816 115.833 24.6189C116.393 24.4283 116.989 24.3297 117.575 24.258C117.963 24.2318 118.556 24.1271 118.938 24.1367C119.033 24.1403 119.13 24.1538 119.22 24.1872C119.522 24.2998 119.687 24.6117 119.77 24.9058C119.898 25.3681 119.842 25.8574 119.741 26.3193C119.48 27.4703 119.016 28.6579 118.956 29.8455C118.902 30.6746 119.104 31.5066 119.464 32.2509C119.559 32.4447 119.666 32.6369 119.793 32.8115C119.861 32.9018 119.935 33.0009 120.032 33.0586C120.036 33.0606 120.04 33.0622 120.04 33.0622C120.043 33.0638 120.046 33.0654 120.046 33.0654C120.05 33.0665 120.053 33.0681 120.053 33.0681C120.056 33.0693 120.059 33.0705 120.059 33.0705C120.063 33.0713 120.066 33.0721 120.066 33.0721C120.069 33.0729 120.072 33.0733 120.072 33.0733C120.075 33.0737 120.078 33.0741 120.078 33.0741C120.081 33.0745 120.083 33.0745 120.083 33.0745C120.086 33.0745 120.089 33.0745 120.089 33.0745C120.092 33.0741 120.094 33.0741 120.094 33.0741C120.096 33.0737 120.099 33.0729 120.099 33.0729C120.103 33.0717 120.105 33.0713 120.105 33.0713C120.108 33.0697 120.11 33.0689 120.11 33.0689C120.114 33.0669 120.116 33.0657 120.116 33.0657C120.119 33.0634 120.12 33.0622 120.12 33.0622C120.124 33.0594 120.125 33.0578 120.125 33.0578C120.128 33.0546 120.129 33.053 120.129 33.053C120.132 33.0494 120.133 33.0474 120.133 33.0474C120.136 33.0435 120.137 33.0415 120.137 33.0415C120.139 33.0395 120.14 33.0371 120.14 33.0371C120.141 33.0347 120.142 33.0323 120.142 33.0323C120.143 33.0299 120.145 33.0276 120.145 33.0276C120.162 32.985 120.166 32.9416 120.17 32.8975C120.174 32.8314 120.173 32.7526 120.17 32.6854C120.166 32.5322 120.136 32.1336 120.132 31.9888C120.103 31.4548 120.153 30.9165 120.288 30.3989C120.485 29.5778 121.069 28.2776 121.388 27.4767C121.67 26.7677 121.944 25.9907 122.169 25.2618C122.559 23.9823 122.876 22.6583 123.004 21.3251C123.107 20.2556 123.061 19.1428 122.976 18.0718C122.858 16.5102 122.645 14.6968 122.845 13.1456C122.912 12.6021 123.045 12.061 123.285 11.5669C123.544 11.0266 123.896 10.4513 124.083 9.88077C124.309 9.19845 124.433 8.39001 124.649 7.70451C124.798 7.23305 124.993 6.75801 125.337 6.39357C125.546 6.17157 125.812 6.00885 126.096 5.89984C126.459 5.75979 126.85 5.69932 127.237 5.68141C127.787 5.65754 128.342 5.71961 128.881 5.82822C129.645 5.98816 130.407 6.23085 131.072 6.64542C131.557 6.94818 131.986 7.35996 132.251 7.87041C132.482 8.31322 132.597 8.80935 132.667 9.30149C132.788 10.141 132.774 11.2108 132.86 12.0546C132.88 12.2536 132.905 12.4628 132.951 12.6566C132.965 12.7055 132.979 12.7585 133.005 12.8018C133.008 12.8058 133.009 12.8078 133.009 12.8078C133.012 12.8118 133.013 12.8134 133.013 12.8134C133.016 12.8169 133.017 12.8185 133.017 12.8185C133.02 12.8217 133.021 12.8233 133.021 12.8233C133.025 12.8273 133.026 12.8285 133.026 12.8285C133.03 12.8317 133.032 12.8329 133.032 12.8329C133.036 12.8356 133.037 12.836 133.037 12.836C133.042 12.838 133.043 12.8384 133.043 12.8384C133.047 12.8396 133.049 12.8396 133.049 12.8396C133.053 12.84 133.055 12.84 133.055 12.84C133.059 12.8396 133.06 12.8396 133.06 12.8396C133.064 12.8388 133.065 12.8384 133.065 12.8384C133.069 12.8368 133.07 12.8364 133.07 12.8364C133.074 12.8344 133.075 12.8336 133.075 12.8336C133.079 12.8309 133.08 12.8301 133.08 12.8301C133.084 12.8269 133.086 12.8257 133.086 12.8257C133.09 12.8221 133.092 12.8205 133.092 12.8205C133.096 12.8161 133.097 12.8149 133.097 12.8149C133.155 12.7449 133.185 12.659 133.221 12.577C133.415 12.0797 133.609 11.5191 133.951 11.1038C134.005 11.0401 134.063 10.9785 134.131 10.9299C134.179 10.8961 134.237 10.8659 134.295 10.8655C134.42 10.8671 134.49 10.9896 134.527 11.091C134.576 11.2299 134.583 11.3799 134.572 11.5255C134.556 11.7471 134.502 11.9671 134.438 12.1796C134.317 12.5798 134.145 12.988 133.976 13.3707C133.856 13.6365 133.728 13.9079 133.558 14.1466C133.481 14.2528 133.394 14.355 133.287 14.4314C133.185 14.5058 133.051 14.5528 132.945 14.6212C132.854 14.6781 132.794 14.7672 132.763 14.8671C132.724 14.9868 132.708 15.1145 132.696 15.2395L132.649 15.841C132.596 16.5389 132.314 17.1949 131.981 17.8025C131.588 18.5031 131.146 19.2236 130.675 19.8749C130.349 20.3169 129.99 20.7482 129.562 21.0955C129.217 21.3788 128.807 21.592 128.362 21.6577C127.577 21.7766 126.775 21.5292 126.095 21.1432C125.516 20.8082 125.044 20.3157 124.634 19.7925C124.172 19.2005 123.769 18.5528 123.438 17.8784C123.179 17.3441 122.959 16.7804 122.824 16.2011" stroke="#E2363F" stroke-miterlimit="10" stroke-linecap="round" stroke-linejoin="round"/>
<path d="M127.013 128.746C127.181 128.815 127.362 128.854 127.54 128.885C127.927 128.949 128.335 128.971 128.727 128.985C129.602 129.001 132.437 129.005 133.293 128.989C133.538 128.978 133.79 128.961 134.03 128.91C134.263 128.862 134.498 128.773 134.666 128.598C134.896 128.361 134.976 128.023 135.024 127.705C135.094 127.209 135.098 126.702 135.056 126.203C135.017 125.763 134.931 125.319 134.732 124.922C134.526 124.49 134.168 124.124 133.842 123.779C133.621 123.543 133.411 123.288 133.248 123.006C133.097 122.747 132.987 122.462 132.899 122.176C132.689 121.504 132.572 120.69 132.458 119.994C132.401 119.671 132.327 119.344 132.183 119.048C131.964 118.587 131.587 118.184 131.098 118.013C131.289 117.741 131.425 117.43 131.498 117.107C131.642 116.479 131.618 115.616 131.649 114.97C131.777 112.636 132.2 110.298 132.779 108.035C133.242 106.31 133.964 104.354 134.216 102.589C134.722 99.3372 134.387 95.2154 134.863 91.9582C135.7 87.2488 137.585 80.4825 138.706 75.7962C139.114 74.0778 139.482 72.2624 139.711 70.5115C139.945 68.7207 140.069 66.885 140.008 65.0788C139.887 61.6894 139.243 58.2687 138.567 54.9514C139.088 54.8682 139.635 54.7496 140.053 54.4083C140.452 54.0812 140.667 53.5875 140.801 53.1005C141.042 52.16 141.036 51.128 140.662 50.2229C140.431 49.6714 140.042 49.1972 139.588 48.8137C139.909 48.8137 140.234 48.7707 140.54 48.672C140.939 48.5447 141.309 48.3358 141.644 48.088C142.373 47.5425 142.963 46.8228 143.436 46.0494C143.89 45.2954 144.242 44.4615 144.365 43.5862C144.451 42.9767 144.404 42.3533 144.314 41.747C144.212 41.0949 144.032 40.0628 143.972 39.4175C143.91 38.8176 143.894 38.1698 143.89 37.5655C143.912 34.5677 143.931 31.3156 143.588 28.3444C143.488 27.612 143.334 26.8756 143.077 26.1813C142.865 25.6147 142.577 25.0633 142.156 24.6237C141.808 24.2573 141.364 23.9927 140.905 23.789C140.196 23.4795 139.408 23.2726 138.665 23.0621C137.973 22.1745 137.339 21.2228 136.903 20.182C136.541 19.3263 136.294 18.4156 136.107 17.5069C135.847 16.2325 135.694 14.9013 135.604 13.6043C135.489 11.8183 135.421 9.2856 135.11 7.54738C134.903 6.37132 134.567 5.20242 134.031 4.13219C133.634 3.34722 133.118 2.60085 132.42 2.055C131.818 1.57876 131.089 1.27878 130.339 1.13396C129.587 0.987948 128.811 0.966465 128.05 1.04444C127.179 1.13555 126.316 1.36352 125.523 1.7383C124.518 2.21016 123.647 2.93942 122.925 3.77731C121.602 5.31104 120.747 7.20801 120.286 9.17062C119.926 10.5906 119.645 12.7796 119.396 14.2393C119.011 16.4549 118.586 18.7374 117.766 20.8385C117.224 22.2238 116.424 23.5061 115.568 24.7172C115.212 24.862 114.878 25.0645 114.598 25.3291C114.223 25.6792 113.944 26.1208 113.727 26.5827C113.3 27.5089 113.055 28.5259 112.836 29.5185C112.096 32.917 111.988 36.9003 111.823 40.3823L111.777 41.0674C111.692 42.2117 111.502 43.5421 111.641 44.6788C111.723 45.3798 111.899 46.0748 112.164 46.7289C112.358 47.2012 112.601 47.6607 112.915 48.0645C113.132 48.3438 113.39 48.5968 113.69 48.7858C113.97 48.9629 114.288 49.081 114.614 49.1323C115.11 49.2083 115.619 49.1526 116.108 49.056C116.769 48.9195 117.418 48.7007 118.027 48.4098L117.252 49.9288C116.981 50.4683 116.607 51.0568 116.278 51.566C116.133 51.8031 115.994 52.0518 115.904 52.3156C115.746 52.7663 115.759 53.2613 115.86 53.7232C115.929 54.0069 116.015 54.3104 116.223 54.5245C116.321 54.6247 116.445 54.6955 116.574 54.7485C116.77 54.8288 116.983 54.8778 117.189 54.9219L117.641 55.0114C116.698 57.5995 115.907 60.3001 115.71 63.0584C115.645 63.96 115.65 64.893 115.707 65.7953C115.886 68.5671 117.237 78.9778 117.57 81.8996C117.861 84.5812 118.082 87.3729 118.022 90.0656C117.993 92.44 117.63 95.3686 117.446 97.7482C117.356 98.9963 117.306 100.286 117.369 101.535C117.546 105.416 118.755 109.633 119.407 113.457C119.52 114.14 119.628 114.886 119.683 115.576C119.735 116.141 119.726 116.955 119.742 117.525C119.754 117.805 119.768 118.094 119.865 118.36C119.924 118.523 120.031 118.666 120.183 118.751C120.336 118.839 120.514 118.875 120.688 118.894C121.083 118.931 121.491 118.895 121.886 118.862C121.669 119.025 121.47 119.217 121.304 119.433C121.054 119.758 120.869 120.131 120.712 120.509C120.482 121.07 120.025 122.369 119.818 122.941C119.382 124.184 119.019 125.486 119.006 126.812C119.006 127.292 119.032 127.788 119.21 128.239C119.295 128.453 119.438 128.65 119.637 128.771C119.99 128.984 120.422 128.987 120.823 128.997C121.807 128.992 124.568 129.012 125.505 128.984C125.795 128.973 126.101 128.956 126.387 128.916C126.601 128.884 126.819 128.844 127.013 128.746Z" stroke="#E2363F" stroke-miterlimit="10" stroke-linecap="round" stroke-linejoin="round"/>
<line x1="127.375" y1="129" x2="127.375" y2="34.6558" stroke="#36E2DE" stroke-width="2" stroke-dasharray="4 4"/>
</svg>
