<svg width="256" height="130" viewBox="0 0 256 130" fill="none" xmlns="http://www.w3.org/2000/svg">
<path d="M127.423 128.746C127.591 128.815 127.772 128.854 127.951 128.885C128.337 128.949 128.746 128.971 129.137 128.985C130.012 129.001 132.848 129.005 133.703 128.989C133.948 128.978 134.2 128.961 134.441 128.91C134.673 128.862 134.908 128.773 135.076 128.598C135.307 128.361 135.386 128.023 135.434 127.705C135.504 127.209 135.509 126.702 135.466 126.203C135.427 125.763 135.341 125.319 135.142 124.922C134.936 124.49 134.578 124.124 134.252 123.779C134.032 123.543 133.821 123.288 133.659 123.006C133.507 122.747 133.398 122.462 133.309 122.176C133.1 121.504 132.982 120.69 132.868 119.994C132.811 119.663 132.733 119.328 132.583 119.026C132.429 118.715 132.209 118.432 131.926 118.231C131.682 118.056 131.391 117.95 131.093 117.918C130.566 117.86 130.046 118.035 129.561 118.225C128.507 118.66 127.476 119.267 126.492 119.844" stroke="#CAB1AD" stroke-miterlimit="10" stroke-linecap="round" stroke-linejoin="round"/>
<path d="M125.732 118.526C125.82 118.508 125.91 118.467 125.968 118.402C126.04 118.322 126.073 118.223 126.098 118.121C126.17 117.785 126.151 117.43 126.142 117.088C126.081 116.047 126.028 114.713 126.021 113.676C126.023 110.375 126.097 99.7736 126.228 96.4627L126.286 95.3081L126.356 94.1515L128.316 67.7249" stroke="#CAB1AD" stroke-miterlimit="10" stroke-linecap="round" stroke-linejoin="round"/>
<path d="M121.956 119.158C121.467 119.648 121.193 120.304 120.953 120.941C120.226 122.987 119.27 125.159 119.436 127.372C119.459 127.636 119.5 127.903 119.588 128.153C119.677 128.415 119.837 128.657 120.084 128.792C120.432 128.984 120.847 128.988 121.234 128.997C122.32 128.99 125.049 129.018 126.092 128.977C126.392 128.96 126.702 128.94 126.998 128.882C127.201 128.841 127.412 128.782 127.575 128.648C127.817 128.449 127.851 128.114 127.87 127.821C127.972 125.687 127.589 123.552 127.025 121.5C126.867 120.93 126.69 120.335 126.47 119.786C126.319 119.411 126.141 119.038 125.893 118.716C125.724 118.496 125.521 118.301 125.289 118.149C125.169 118.071 125.041 117.997 124.901 117.962C124.599 117.889 124.285 117.973 123.993 118.052C123.252 118.27 122.511 118.61 121.956 119.158Z" stroke="#CAB1AD" stroke-miterlimit="10" stroke-linecap="round" stroke-linejoin="round"/>
<path d="M118.051 55.0122C117.109 57.6003 116.318 60.3009 116.121 63.0592C116.056 63.9608 116.061 64.8937 116.117 65.7961C116.297 68.5679 117.648 78.9786 117.981 81.9004C118.271 84.582 118.493 87.3737 118.433 90.0664C118.404 92.4408 118.041 95.3694 117.856 97.749C117.767 98.997 117.716 100.287 117.78 101.536C117.956 105.417 119.165 109.634 119.818 113.457C119.931 114.141 120.039 114.887 120.094 115.576C120.145 116.141 120.137 116.955 120.152 117.526C120.165 117.806 120.179 118.095 120.275 118.361C120.334 118.524 120.441 118.667 120.594 118.752C120.747 118.84 120.925 118.876 121.099 118.895C121.494 118.932 121.902 118.895 122.297 118.863" stroke="#CAB1AD" stroke-miterlimit="10" stroke-linecap="round" stroke-linejoin="round"/>
<path d="M131.508 118.013C131.699 117.741 131.835 117.43 131.908 117.107C132.052 116.479 132.028 115.616 132.059 114.97C132.187 112.636 132.61 110.298 133.189 108.035C133.652 106.31 134.374 104.354 134.627 102.589C135.132 99.3372 134.797 95.2154 135.274 91.9582C136.11 87.2488 137.996 80.4825 139.116 75.7962C139.525 74.0778 139.892 72.2624 140.121 70.5114C140.355 68.7207 140.479 66.885 140.418 65.0787C140.298 61.6894 139.653 58.2687 138.977 54.9514" stroke="#CAB1AD" stroke-miterlimit="10" stroke-linecap="round" stroke-linejoin="round"/>
<path d="M135.142 40.7042C135.347 40.9047 135.489 41.1613 135.608 41.4199C135.829 41.9121 135.975 42.4484 136.109 42.9704C136.328 43.7991 136.525 45.0006 136.927 45.7585C137.029 45.9463 137.156 46.1238 137.316 46.2674C137.453 46.3919 137.614 46.4898 137.787 46.5586C138.064 46.6692 138.366 46.7174 138.663 46.7042C138.894 46.6931 139.125 46.6441 139.333 46.5415C139.495 46.4623 139.64 46.3462 139.751 46.2041C139.927 45.9821 140.032 45.7124 140.104 45.441C140.258 44.847 140.276 44.2184 140.294 43.6077C140.309 42.6958 140.277 41.7585 139.987 40.886C139.723 40.0871 139.201 39.4052 138.658 38.775C138.103 38.1444 137.524 37.4656 136.878 36.9293C136.309 36.4364 135.557 36.1145 134.977 35.6363C134.453 35.1951 134.043 34.5943 133.512 34.1595C132.795 33.5416 131.834 33.3061 130.908 33.2512C130.196 33.213 129.469 33.275 128.786 33.4907C128.256 33.6582 127.76 33.9327 127.32 34.2709C127.016 34.5044 126.721 34.7674 126.452 35.0399C126.19 35.3105 125.951 35.6164 125.816 35.9709C125.649 36.3986 125.671 36.8752 125.779 37.3149C125.864 37.6534 125.999 37.9813 126.18 38.2797C126.371 38.5967 126.626 38.8812 126.945 39.0726C127.128 39.1848 127.33 39.2695 127.534 39.3376C128.414 39.6049 129.552 39.805 130.465 39.9829C131.192 40.1114 131.964 40.2399 132.699 40.2872C133.178 40.3274 133.734 40.2956 134.214 40.3266C134.554 40.3537 134.894 40.4595 135.142 40.7042Z" stroke="#CAB1AD" stroke-miterlimit="10" stroke-linecap="round" stroke-linejoin="round"/>
<path d="M127.477 39.3185C126.94 39.8564 126.273 40.2507 125.59 40.5761C125.182 40.7615 124.759 40.9441 124.31 40.9919C123.544 41.0535 122.706 40.9775 121.964 41.2083C121.798 41.2616 121.636 41.3372 121.504 41.453C121.316 41.6157 121.204 41.8449 121.119 42.074C120.97 42.493 120.75 43.3293 120.612 43.7546C120.322 44.6513 119.994 45.562 119.452 46.341C119.283 46.5793 119.088 46.8037 118.856 46.984C118.591 47.1916 118.281 47.3432 117.953 47.42C117.448 47.5382 116.886 47.4845 116.444 47.2008C116.15 47.0138 115.925 46.7357 115.757 46.4337C115.558 46.076 115.421 45.6826 115.321 45.2867C115.149 44.5797 115.095 43.8318 115.242 43.1156C115.329 42.6895 115.503 42.2837 115.722 41.9093C116.066 41.3082 116.61 40.6887 117.049 40.1504C117.694 39.3977 118.5 38.2785 119.276 37.6662L119.763 37.2815C119.98 37.1068 120.186 36.9127 120.363 36.697C120.862 36.0823 121.299 35.2576 121.845 34.6815C122.07 34.4416 122.336 34.2387 122.632 34.0947C122.974 33.9264 123.348 33.8297 123.721 33.7573C124.345 33.6427 125.012 33.5548 125.644 33.4919C126.059 33.4541 126.493 33.4227 126.909 33.4382C127.088 33.4466 127.27 33.4601 127.443 33.5094C127.527 33.5341 127.609 33.5719 127.681 33.6232C127.775 33.6884 127.857 33.7831 127.945 33.8563" stroke="#CAB1AD" stroke-miterlimit="10" stroke-linecap="round" stroke-linejoin="round"/>
<path d="M124.85 33.583L124.784 30.7276C124.785 30.716 124.782 30.6941 124.784 30.6826C124.784 30.6086 124.792 30.5326 124.805 30.4598C124.85 30.2175 124.966 29.9883 125.135 29.8089C125.37 29.5571 125.708 29.4063 126.052 29.3995L129.989 29.3088C129.999 29.3088 130.023 29.3084 130.034 29.3084C130.108 29.3092 130.184 29.3168 130.256 29.3303C130.499 29.3753 130.728 29.491 130.907 29.6601C131.093 29.8336 131.225 30.0631 131.283 30.3106C131.3 30.3826 131.311 30.4582 131.315 30.5322C131.314 30.543 131.317 30.566 131.317 30.5772L131.38 33.2957" stroke="#CAB1AD" stroke-miterlimit="10" stroke-linecap="round" stroke-linejoin="round"/>
<path d="M135.979 42.4783C135.789 42.8176 135.608 43.1733 135.513 43.5521C135.337 44.2571 135.328 45.0019 135.42 45.7204C135.506 46.3223 135.68 46.9458 136.097 47.4057C136.399 47.7419 136.799 47.9746 137.211 48.1493C137.692 48.3486 138.205 48.5038 138.709 48.6351C139.267 48.7735 139.851 48.8606 140.426 48.7882C140.832 48.7389 141.225 48.5965 141.581 48.3963C142.058 48.129 142.479 47.7677 142.852 47.3707C143.326 46.8618 143.734 46.2845 144.063 45.6718C144.408 45.0221 144.674 44.3179 144.776 43.5871C144.862 42.9776 144.815 42.3541 144.725 41.7478C144.623 41.0957 144.443 40.0637 144.383 39.4184C144.321 38.8184 144.305 38.1707 144.301 37.5663C144.33 35.0921 144.318 32.2709 144.142 29.8153C144.093 29.133 144.028 28.4221 143.905 27.7497C143.766 26.9973 143.563 26.2442 143.216 25.5591C142.992 25.1195 142.698 24.7073 142.316 24.3902C141.717 23.8945 140.968 23.6267 140.235 23.3983C139.341 23.1294 138.399 22.8517 137.472 22.7303" stroke="#CAB1AD" stroke-miterlimit="10" stroke-linecap="round" stroke-linejoin="round"/>
<path d="M139.341 39.6403C139.592 39.1736 139.856 38.6743 140.047 38.1818C140.358 37.3896 140.598 36.5426 140.813 35.7194C141.11 34.5513 141.365 33.3443 141.499 32.1451C141.607 31.1935 141.63 30.198 141.615 29.24" stroke="#CAB1AD" stroke-miterlimit="10" stroke-linecap="round" stroke-linejoin="round"/>
<path d="M139.998 48.814C140.444 49.1912 140.828 49.6555 141.06 50.1954C141.429 51.0623 141.45 52.0514 141.245 52.9625C141.116 53.4976 140.899 54.0498 140.464 54.4087C140.232 54.5984 139.953 54.7218 139.668 54.8049C139.241 54.9287 138.783 54.9828 138.343 55.0329C136.973 55.1598 135.374 55.2816 134.047 55.6221C132.424 56.0216 130.524 56.5519 128.863 56.6359C126.859 56.752 124.825 56.5627 122.853 56.1962C121.92 56.0267 120.917 55.7204 120.003 55.4594C119.268 55.2553 118.354 55.0703 117.6 54.9231C117.442 54.8893 117.275 54.8511 117.122 54.8002C116.923 54.7349 116.724 54.6402 116.588 54.4759C116.467 54.3331 116.396 54.1552 116.339 53.979C116.24 53.6615 116.19 53.3257 116.196 52.9931C116.201 52.645 116.294 52.3028 116.451 51.9929C116.604 51.6631 116.917 51.2215 117.109 50.9087C117.301 50.6032 117.496 50.2507 117.663 49.93L118.438 48.411" stroke="#CAB1AD" stroke-miterlimit="10" stroke-linecap="round" stroke-linejoin="round"/>
<path d="M123.412 21.3458C124.506 21.9839 125.454 22.8688 126.19 23.898C126.684 24.5843 127.069 25.3526 127.377 26.1387C127.622 26.7319 127.967 27.7874 128.298 28.3253C128.353 28.4081 128.413 28.4916 128.494 28.5501L128.499 28.5537L128.504 28.5573L128.509 28.5605L128.515 28.5637L128.52 28.5668L128.525 28.5696L128.53 28.5724L128.535 28.5752L128.54 28.5776L128.546 28.58L128.551 28.582L128.556 28.5839L128.561 28.5859L128.566 28.5875L128.571 28.5891C128.575 28.5899 128.579 28.5911 128.579 28.5911C128.582 28.5919 128.586 28.5927 128.586 28.5927C128.589 28.5935 128.593 28.5939 128.593 28.5939C128.596 28.5943 128.6 28.5951 128.6 28.5951C128.604 28.5955 128.607 28.5959 128.607 28.5959C128.611 28.5963 128.614 28.5963 128.614 28.5963C128.618 28.5963 128.622 28.5967 128.622 28.5967C128.625 28.5967 128.629 28.5967 128.629 28.5967C128.632 28.5967 128.636 28.5967 128.636 28.5967C128.639 28.5967 128.643 28.5963 128.643 28.5963C128.647 28.5959 128.65 28.5955 128.65 28.5955C128.735 28.5839 128.799 28.5298 128.857 28.4733C128.937 28.3914 129.002 28.2943 129.063 28.1976C129.285 27.834 129.588 27.1922 129.794 26.8163C130.14 26.169 130.527 25.5053 130.933 24.8934C131.309 24.3293 131.722 23.7743 132.186 23.2785C132.684 22.7291 133.407 22.1371 133.895 21.5793C134.013 21.4425 134.155 21.2487 134.296 21.1373C134.351 21.0931 134.413 21.0565 134.481 21.035C134.604 20.9953 134.737 21.012 134.859 21.0434C135.144 21.1206 135.408 21.269 135.664 21.4134C136.016 21.629 136.543 21.9266 136.886 22.1486C136.982 22.2127 137.081 22.2815 137.17 22.3555C137.256 22.4275 137.339 22.5071 137.403 22.5998C137.463 22.6861 137.502 22.788 137.51 22.8938C137.529 23.1218 137.444 23.388 137.405 23.6116C137.348 23.8972 137.349 24.2167 137.312 24.5051C137.299 24.6042 137.281 24.7053 137.242 24.7976C137.211 24.872 137.156 24.942 137.079 24.9659C136.994 24.9933 136.91 24.9822 136.826 24.9651C136.503 24.8903 136.106 24.6555 135.805 24.5155C135.456 24.3472 135.088 24.2008 134.702 24.153C134.343 24.1065 133.977 24.1447 133.629 24.237C132.869 24.4435 132.165 24.829 131.521 25.2758C130.754 25.8185 130.047 26.4765 129.551 27.2802" stroke="#CAB1AD" stroke-miterlimit="10" stroke-linecap="round" stroke-linejoin="round"/>
<path d="M127.885 27.452C127.38 26.5485 126.697 25.7472 125.956 25.0283C125.528 24.6217 125.079 24.2147 124.56 23.9282C124.339 23.8089 124.1 23.7158 123.85 23.6883C123.563 23.6545 123.272 23.7007 122.992 23.7603" stroke="#CAB1AD" stroke-miterlimit="10" stroke-linecap="round" stroke-linejoin="round"/>
<path d="M134.209 21.2157C133.974 21.1532 133.738 21.0741 133.528 20.9467C133.364 20.8485 133.22 20.7188 133.098 20.5712C132.881 20.3066 132.717 19.9995 132.576 19.6879C132.371 19.228 132.214 18.7402 132.141 18.2405" stroke="#CAB1AD" stroke-miterlimit="10" stroke-linecap="round" stroke-linejoin="round"/>
<path d="M139.075 23.0625C138.383 22.1749 137.749 21.2232 137.313 20.1824C136.95 19.3266 136.704 18.4159 136.516 17.5072C136.257 16.2329 136.104 14.9017 136.013 13.6047C135.899 11.8187 135.831 9.28597 135.519 7.54774C135.313 6.37169 134.976 5.20279 134.44 4.13256C134.044 3.34759 133.528 2.60122 132.83 2.05536C132.228 1.57913 131.499 1.27915 130.748 1.13433C129.997 0.988315 129.221 0.966831 128.46 1.04481C127.589 1.13592 126.726 1.36389 125.933 1.73867C124.927 2.21052 124.057 2.93979 123.335 3.77767C122.011 5.3114 121.157 7.20837 120.695 9.17099C120.336 10.5909 120.055 12.7799 119.805 14.2397C119.421 16.4553 118.996 18.7378 118.176 20.8389C117.634 22.2242 116.834 23.5065 115.978 24.7176" stroke="#CAB1AD" stroke-miterlimit="10" stroke-linecap="round" stroke-linejoin="round"/>
<path d="M117.846 39.176C117.015 36.2418 116.525 33.1752 116.305 30.1356" stroke="#CAB1AD" stroke-miterlimit="10" stroke-linecap="round" stroke-linejoin="round"/>
<path d="M120.306 44.6421C120.387 44.88 120.475 45.1295 120.474 45.3833C120.476 45.7438 120.344 46.0903 120.202 46.4166C120.074 46.7018 119.921 46.9807 119.751 47.2433C119.616 47.4498 119.468 47.6535 119.294 47.8293C118.914 48.2161 118.404 48.4396 117.909 48.6406C117.3 48.8773 116.662 49.0603 116.012 49.1375C115.461 49.2031 114.88 49.1773 114.372 48.935C113.511 48.53 112.98 47.6702 112.614 46.8259C112.285 46.0465 112.084 45.2083 112.022 44.3648C111.939 43.3483 112.111 42.0887 112.187 41.0682L112.233 40.3831C112.371 37.5177 112.476 33.9959 112.94 31.1911C113.146 29.9112 113.405 28.6046 113.82 27.3752C114.068 26.6611 114.393 25.9457 114.933 25.4035C115.294 25.035 115.757 24.7816 116.243 24.6189C116.803 24.4283 117.399 24.3297 117.985 24.258C118.373 24.2318 118.966 24.1271 119.348 24.1367C119.444 24.1403 119.541 24.1538 119.631 24.1872C119.932 24.2998 120.098 24.6117 120.18 24.9058C120.308 25.3681 120.252 25.8574 120.151 26.3193C119.89 27.4703 119.426 28.6579 119.366 29.8455C119.312 30.6746 119.514 31.5066 119.874 32.2509C119.969 32.4447 120.076 32.6369 120.203 32.8115C120.271 32.9018 120.345 33.0009 120.443 33.0586C120.446 33.0606 120.45 33.0622 120.45 33.0622C120.453 33.0638 120.456 33.0654 120.456 33.0654C120.46 33.0665 120.463 33.0681 120.463 33.0681C120.466 33.0693 120.47 33.0705 120.47 33.0705C120.473 33.0713 120.476 33.0721 120.476 33.0721C120.479 33.0729 120.482 33.0733 120.482 33.0733C120.485 33.0737 120.488 33.0741 120.488 33.0741C120.491 33.0745 120.493 33.0745 120.493 33.0745C120.496 33.0745 120.499 33.0745 120.499 33.0745C120.502 33.0741 120.504 33.0741 120.504 33.0741C120.507 33.0737 120.509 33.0729 120.509 33.0729C120.513 33.0717 120.515 33.0713 120.515 33.0713C120.519 33.0697 120.521 33.0689 120.521 33.0689C120.524 33.0669 120.526 33.0657 120.526 33.0657C120.529 33.0634 120.53 33.0622 120.53 33.0622C120.534 33.0594 120.535 33.0578 120.535 33.0578C120.538 33.0546 120.54 33.053 120.54 33.053C120.542 33.0494 120.544 33.0474 120.544 33.0474C120.546 33.0435 120.548 33.0415 120.548 33.0415C120.549 33.0395 120.55 33.0371 120.55 33.0371C120.551 33.0347 120.552 33.0323 120.552 33.0323C120.554 33.0299 120.555 33.0276 120.555 33.0276C120.572 32.985 120.576 32.9416 120.58 32.8975C120.584 32.8314 120.583 32.7526 120.581 32.6854C120.576 32.5322 120.546 32.1336 120.542 31.9888C120.513 31.4548 120.563 30.9165 120.698 30.3989C120.895 29.5778 121.479 28.2776 121.798 27.4767C122.08 26.7677 122.354 25.9907 122.579 25.2618C122.969 23.9823 123.286 22.6583 123.414 21.3251C123.517 20.2556 123.471 19.1428 123.386 18.0718C123.268 16.5102 123.055 14.6968 123.255 13.1456C123.322 12.6021 123.456 12.061 123.695 11.5669C123.954 11.0266 124.306 10.4513 124.493 9.88077C124.719 9.19845 124.843 8.39001 125.059 7.70451C125.208 7.23305 125.403 6.75801 125.747 6.39357C125.956 6.17157 126.223 6.00885 126.506 5.89984C126.869 5.75979 127.26 5.69932 127.647 5.68141C128.198 5.65754 128.753 5.71961 129.292 5.82822C130.055 5.98816 130.817 6.23085 131.483 6.64542C131.968 6.94818 132.396 7.35996 132.661 7.87041C132.893 8.31322 133.007 8.80935 133.077 9.30149C133.199 10.141 133.184 11.2108 133.271 12.0546C133.29 12.2536 133.315 12.4628 133.361 12.6566C133.375 12.7055 133.389 12.7585 133.415 12.8018C133.418 12.8058 133.419 12.8078 133.419 12.8078C133.422 12.8118 133.423 12.8134 133.423 12.8134C133.426 12.8169 133.427 12.8185 133.427 12.8185C133.43 12.8217 133.431 12.8233 133.431 12.8233C133.435 12.8273 133.437 12.8285 133.437 12.8285C133.44 12.8317 133.442 12.8329 133.442 12.8329C133.446 12.8356 133.448 12.836 133.448 12.836C133.452 12.838 133.453 12.8384 133.453 12.8384C133.458 12.8396 133.459 12.8396 133.459 12.8396C133.463 12.84 133.465 12.84 133.465 12.84C133.469 12.8396 133.47 12.8396 133.47 12.8396C133.474 12.8388 133.475 12.8384 133.475 12.8384C133.479 12.8368 133.48 12.8364 133.48 12.8364C133.484 12.8344 133.485 12.8336 133.485 12.8336C133.489 12.8309 133.491 12.8301 133.491 12.8301C133.495 12.8269 133.496 12.8257 133.496 12.8257C133.5 12.8221 133.502 12.8205 133.502 12.8205C133.506 12.8161 133.507 12.8149 133.507 12.8149C133.565 12.7449 133.595 12.659 133.631 12.577C133.825 12.0797 134.019 11.5191 134.361 11.1038C134.415 11.0401 134.473 10.9785 134.541 10.9299C134.589 10.8961 134.647 10.8659 134.705 10.8655C134.83 10.8671 134.901 10.9896 134.938 11.091C134.987 11.2299 134.993 11.3799 134.983 11.5255C134.966 11.7471 134.912 11.9671 134.848 12.1796C134.728 12.5798 134.555 12.988 134.387 13.3707C134.266 13.6365 134.138 13.9079 133.968 14.1466C133.892 14.2528 133.805 14.355 133.697 14.4314C133.595 14.5058 133.461 14.5528 133.355 14.6212C133.264 14.6781 133.204 14.7672 133.173 14.8671C133.134 14.9868 133.119 15.1145 133.106 15.2395L133.059 15.841C133.006 16.5389 132.724 17.1949 132.391 17.8025C131.998 18.5031 131.556 19.2236 131.085 19.8749C130.759 20.3169 130.4 20.7482 129.972 21.0955C129.627 21.3788 129.218 21.592 128.772 21.6577C127.987 21.7766 127.185 21.5292 126.505 21.1432C125.926 20.8082 125.454 20.3157 125.045 19.7925C124.583 19.2005 124.179 18.5528 123.849 17.8784C123.589 17.3441 123.369 16.7804 123.234 16.2011" stroke="#CAB1AD" stroke-miterlimit="10" stroke-linecap="round" stroke-linejoin="round"/>
<path d="M127.423 128.746C127.591 128.815 127.772 128.854 127.951 128.885C128.337 128.949 128.746 128.971 129.137 128.985C130.012 129.001 132.847 129.005 133.703 128.989C133.948 128.978 134.2 128.961 134.44 128.91C134.673 128.862 134.908 128.773 135.076 128.598C135.307 128.361 135.386 128.023 135.434 127.705C135.504 127.209 135.509 126.702 135.466 126.203C135.427 125.763 135.341 125.319 135.142 124.922C134.936 124.49 134.578 124.124 134.252 123.779C134.031 123.543 133.821 123.288 133.659 123.006C133.507 122.747 133.398 122.462 133.309 122.176C133.1 121.504 132.982 120.69 132.868 119.994C132.812 119.671 132.737 119.344 132.593 119.048C132.374 118.587 131.997 118.184 131.508 118.013C131.699 117.741 131.835 117.43 131.908 117.107C132.052 116.479 132.028 115.616 132.059 114.97C132.187 112.636 132.61 110.298 133.189 108.035C133.652 106.31 134.374 104.354 134.627 102.589C135.132 99.3372 134.797 95.2154 135.274 91.9582C136.11 87.2488 137.996 80.4825 139.116 75.7962C139.525 74.0778 139.892 72.2624 140.121 70.5115C140.355 68.7207 140.479 66.885 140.418 65.0788C140.298 61.6894 139.653 58.2687 138.977 54.9514C139.498 54.8682 140.045 54.7496 140.464 54.4083C140.862 54.0812 141.077 53.5875 141.211 53.1005C141.452 52.16 141.446 51.128 141.072 50.2229C140.841 49.6714 140.452 49.1972 139.998 48.8137C140.32 48.8137 140.644 48.7707 140.95 48.672C141.349 48.5447 141.719 48.3358 142.054 48.088C142.783 47.5425 143.373 46.8228 143.846 46.0494C144.3 45.2954 144.652 44.4615 144.775 43.5862C144.861 42.9767 144.814 42.3533 144.725 41.747C144.622 41.0949 144.442 40.0628 144.382 39.4175C144.32 38.8176 144.304 38.1698 144.3 37.5655C144.322 34.5677 144.341 31.3156 143.998 28.3444C143.898 27.612 143.744 26.8756 143.487 26.1813C143.276 25.6147 142.987 25.0633 142.566 24.6237C142.218 24.2573 141.774 23.9927 141.315 23.789C140.606 23.4795 139.819 23.2726 139.075 23.0621C138.384 22.1745 137.749 21.2228 137.313 20.182C136.951 19.3263 136.705 18.4156 136.517 17.5069C136.257 16.2325 136.105 14.9013 136.014 13.6043C135.899 11.8183 135.831 9.2856 135.52 7.54738C135.313 6.37132 134.977 5.20242 134.441 4.13219C134.044 3.34722 133.528 2.60085 132.83 2.055C132.228 1.57876 131.499 1.27878 130.749 1.13396C129.997 0.987948 129.221 0.966465 128.461 1.04444C127.589 1.13555 126.726 1.36352 125.933 1.7383C124.928 2.21016 124.058 2.93942 123.335 3.77731C122.012 5.31104 121.157 7.20801 120.696 9.17062C120.336 10.5906 120.055 12.7796 119.806 14.2393C119.421 16.4549 118.996 18.7374 118.176 20.8385C117.634 22.2238 116.835 23.5061 115.978 24.7172C115.622 24.862 115.288 25.0645 115.008 25.3291C114.633 25.6792 114.354 26.1208 114.137 26.5827C113.711 27.5089 113.465 28.5259 113.246 29.5185C112.506 32.917 112.398 36.9003 112.233 40.3823L112.187 41.0674C112.102 42.2117 111.912 43.5421 112.052 44.6788C112.133 45.3798 112.309 46.0748 112.574 46.7289C112.768 47.2012 113.011 47.6607 113.325 48.0645C113.542 48.3438 113.8 48.5968 114.1 48.7858C114.38 48.9629 114.698 49.081 115.024 49.1323C115.52 49.2083 116.029 49.1526 116.519 49.056C117.179 48.9195 117.828 48.7007 118.437 48.4098L117.662 49.9288C117.391 50.4683 117.017 51.0568 116.689 51.566C116.543 51.8031 116.404 52.0518 116.314 52.3156C116.157 52.7663 116.169 53.2613 116.27 53.7232C116.339 54.0069 116.425 54.3104 116.633 54.5245C116.732 54.6247 116.856 54.6955 116.985 54.7485C117.18 54.8288 117.393 54.8778 117.599 54.9219L118.051 55.0114C117.108 57.5995 116.317 60.3001 116.12 63.0584C116.056 63.96 116.06 64.893 116.117 65.7953C116.297 68.5671 117.647 78.9778 117.98 81.8996C118.271 84.5812 118.492 87.3729 118.432 90.0656C118.403 92.44 118.04 95.3686 117.856 97.7482C117.766 98.9963 117.716 100.286 117.779 101.535C117.956 105.416 119.165 109.633 119.818 113.457C119.931 114.14 120.038 114.886 120.093 115.576C120.145 116.141 120.136 116.955 120.152 117.525C120.165 117.805 120.179 118.094 120.275 118.36C120.334 118.523 120.441 118.666 120.593 118.751C120.747 118.839 120.924 118.875 121.098 118.894C121.493 118.931 121.902 118.895 122.296 118.862C122.079 119.025 121.88 119.217 121.714 119.433C121.464 119.758 121.279 120.131 121.122 120.509C120.892 121.07 120.435 122.369 120.229 122.941C119.793 124.184 119.429 125.486 119.416 126.812C119.416 127.292 119.442 127.788 119.62 128.239C119.705 128.453 119.848 128.65 120.047 128.771C120.4 128.984 120.833 128.987 121.233 128.997C122.217 128.992 124.979 129.012 125.916 128.984C126.206 128.973 126.511 128.956 126.798 128.916C127.011 128.884 127.229 128.844 127.423 128.746Z" stroke="#CAB1AD" stroke-miterlimit="10" stroke-linecap="round" stroke-linejoin="round"/>
<line x1="128" y1="127.344" x2="128" y2="37" stroke="#E2363F" stroke-width="4" stroke-linecap="round"/>
</svg>
