<svg width="256" height="130" viewBox="0 0 256 130" fill="none" xmlns="http://www.w3.org/2000/svg">
<path d="M144.527 122.893C144.729 124.152 145.182 125.894 145.394 127.151C145.422 127.356 145.441 127.567 145.432 127.774C145.422 128.018 145.373 128.269 145.231 128.472C145.117 128.637 144.944 128.752 144.759 128.824C144.552 128.905 144.329 128.943 144.108 128.966C143.925 128.985 143.725 128.992 143.541 128.996C142.305 129.015 140.828 128.96 139.588 128.905" stroke="#E2363F" stroke-miterlimit="10" stroke-linecap="round" stroke-linejoin="round"/>
<path d="M139.959 123.296C140.853 123.479 141.774 123.586 142.688 123.55C143.131 123.528 143.584 123.489 144.012 123.366C144.158 123.321 144.305 123.253 144.402 123.131C144.465 123.054 144.505 122.961 144.536 122.867C144.595 122.689 144.628 122.501 144.647 122.315C144.674 122.043 144.67 121.765 144.623 121.495C144.574 121.199 144.444 120.869 144.349 120.584C144.278 120.371 144.217 120.151 144.196 119.927C144.168 119.638 144.193 119.344 144.248 119.06C144.34 118.542 144.598 118.006 144.773 117.513C144.878 117.213 144.957 116.899 144.991 116.583C145.055 115.969 145.003 115.335 144.949 114.721C144.858 113.858 144.693 112.323 144.658 111.469C144.603 110.652 144.553 106.461 144.533 105.568C144.441 102.337 144.02 99.0876 143.165 95.9671L142.251 92.7339C141.854 91.2507 141.512 89.7179 141.365 88.1886C141.201 86.5367 141.248 84.7513 141.302 83.0895C141.415 80.5669 141.57 77.8329 141.907 75.3328C142.13 73.7244 142.479 72.076 142.902 70.5081" stroke="#E2363F" stroke-miterlimit="10" stroke-linecap="round" stroke-linejoin="round"/>
<path d="M139.778 123.634C140.103 124.494 140.351 125.399 140.414 126.319C140.454 126.93 140.409 127.553 140.287 128.154C140.242 128.348 140.176 128.55 140.029 128.691C139.874 128.841 139.657 128.897 139.45 128.933C139.205 128.973 138.94 128.983 138.691 128.99C137.459 129 128.179 129.007 127.125 128.987C126.687 128.971 126.236 128.958 125.812 128.841C125.593 128.778 125.378 128.676 125.223 128.506C125.092 128.363 125.013 128.18 124.968 127.993C124.913 127.765 124.898 127.527 124.899 127.293C124.902 127.022 124.926 126.747 124.985 126.481C125.015 126.349 125.065 126.216 125.161 126.117C125.255 126.018 125.381 125.955 125.508 125.907C125.989 125.736 126.938 125.636 127.45 125.543C128.166 125.42 128.889 125.258 129.56 124.975C130.674 124.507 131.692 123.777 132.68 123.09" stroke="#E2363F" stroke-miterlimit="10" stroke-linecap="round" stroke-linejoin="round"/>
<path d="M137.309 70.7816C137.099 71.0537 136.87 71.3856 136.678 71.6722C136.297 72.2709 135.638 73.2573 135.262 73.8422C135.164 74.0079 135.075 74.1826 135.005 74.362C134.805 74.8672 134.745 75.4189 134.713 75.9577C134.653 77.1841 134.764 78.4609 134.882 79.6827C135.313 83.4237 136.595 92.8549 137.141 96.5382C137.514 99.0101 138.204 102.289 138.595 104.763C139.002 107.275 138.832 110.51 138.924 113.053C138.968 114.359 139.112 115.727 139.286 117.022C139.42 117.961 139.664 119.695 139.735 120.652C139.798 121.279 139.967 122.067 139.996 122.696C140.004 122.874 140.004 123.056 139.972 123.232C139.952 123.34 139.917 123.447 139.855 123.539C139.797 123.626 139.717 123.697 139.629 123.753C139.45 123.866 139.243 123.938 139.045 124.01C138.538 124.189 138.008 124.326 137.479 124.426C136.762 124.558 136.021 124.631 135.293 124.557C134.688 124.492 134.086 124.326 133.554 124.027C133.165 123.803 132.772 123.488 132.664 123.032C132.612 122.819 132.621 122.596 132.645 122.379C132.663 122.187 132.786 121.49 132.818 121.288C132.888 120.839 132.94 120.377 132.925 119.923C132.914 119.554 132.849 119.183 132.77 118.823C132.629 118.199 132.426 117.475 132.43 116.835C132.423 116.412 132.449 115.925 132.384 115.507C132.338 115.203 132.241 114.903 132.137 114.614C131.907 114 131.627 113.314 131.524 112.667C131.354 111.659 131.31 110.48 131.081 109.483C130.808 108.213 130.371 106.639 130.134 105.364C129.797 103.596 129.553 101.706 129.378 99.9148C129.277 98.8189 129.169 96.7882 128.959 95.7323C128.74 94.5689 128.378 93.3952 128.005 92.2718L126.652 88.4159C126.411 87.707 126.084 86.6488 125.868 85.9254L123.521 77.6645L121.628 71.5566C121.439 70.8953 121.231 70.2069 121.15 69.5231C121.105 69.1603 121.147 68.7554 121.166 68.391" stroke="#E2363F" stroke-miterlimit="10" stroke-linecap="round" stroke-linejoin="round"/>
<path d="M122.477 33.5837C121.321 32.1474 120.219 30.6165 119.295 29.02L118.652 27.8535C118.371 27.364 118.063 26.8744 117.65 26.4844C117.098 25.9628 116.379 25.6598 115.654 25.4622" stroke="#E2363F" stroke-miterlimit="10" stroke-linecap="round" stroke-linejoin="round"/>
<path d="M119.909 36.1082C119.544 35.611 119.047 35.0585 118.67 34.5693C118.445 34.2801 118.193 33.9092 117.919 33.6699C117.76 33.5272 117.576 33.4127 117.379 33.3307C116.799 33.0903 116.08 33.0052 115.487 32.8007C114.813 32.5759 114.174 32.2104 113.692 31.6838C113.273 31.2278 112.977 30.6711 112.708 30.1178C112.411 29.4477 111.973 28.6468 111.777 27.9485C111.728 27.7615 111.696 27.5669 111.705 27.3731C111.728 26.911 112.007 26.5141 112.298 26.1738" stroke="#E2363F" stroke-miterlimit="10" stroke-linecap="round" stroke-linejoin="round"/>
<path d="M122.636 42.6565C121.896 42.0822 121.17 41.3908 120.498 40.7371C120.044 40.2884 119.566 39.8118 119.166 39.3158C118.969 39.0628 118.747 38.7793 118.651 38.4694C118.626 38.3801 118.617 38.2859 118.63 38.1939C118.647 38.0771 118.698 37.968 118.754 37.8654C119.423 36.7401 120.193 35.6488 121.058 34.6654C121.283 34.4163 121.522 34.169 121.783 33.9568C121.934 33.8355 122.096 33.7199 122.274 33.6436C122.396 33.5921 122.532 33.5596 122.664 33.5871C122.883 33.6329 123.045 33.8046 123.188 33.9641L123.561 34.4014C123.617 34.4651 123.774 34.6361 123.834 34.7005" stroke="#E2363F" stroke-miterlimit="10" stroke-linecap="round" stroke-linejoin="round"/>
<path d="M111.113 21.3247C110.986 21.3136 110.856 21.3529 110.757 21.4323C110.66 21.5082 110.593 21.6208 110.573 21.7417C110.557 21.8344 110.567 21.9317 110.603 22.0191C110.602 22.0241 113.804 29.8617 113.805 29.8675C113.823 29.9094 113.846 29.9503 113.872 29.9877C113.955 30.1067 114.078 30.1975 114.217 30.241C114.261 30.2548 114.306 30.2643 114.352 30.2689C114.363 30.2765 116.897 30.4753 116.908 30.481C116.95 30.4845 116.993 30.4826 117.035 30.4757C117.184 30.4513 117.319 30.3559 117.392 30.2239C117.447 30.1243 117.468 30.0052 117.448 29.8926C117.442 29.8564 117.432 29.8205 117.418 29.7866L114.221 21.9489C114.211 21.9249 114.198 21.8993 114.186 21.8764C114.106 21.7322 113.971 21.62 113.815 21.5681C113.772 21.5536 113.726 21.5433 113.681 21.538C113.675 21.5391 113.663 21.5349 113.658 21.5357C113.658 21.5357 111.113 21.3247 111.113 21.3247Z" stroke="#E2363F" stroke-miterlimit="10" stroke-linecap="round" stroke-linejoin="round"/>
<path d="M131.212 21.5197C131.118 21.3556 131.022 21.182 130.873 21.061C130.789 20.9915 130.687 20.9458 130.579 20.9293C130.435 20.9061 130.287 20.9187 130.144 20.9385C129.758 20.9942 129.338 21.132 128.95 21.1747C128.742 21.1965 128.519 21.1961 128.327 21.1014C128.116 20.9992 127.997 20.7824 127.894 20.5813C127.778 20.3516 127.67 20.0708 127.495 19.8815C127.364 19.735 127.185 19.624 127.057 19.4763C126.913 19.3141 126.867 19.0772 126.8 18.8768C126.773 18.7978 126.742 18.7189 126.695 18.6494C126.623 18.5414 126.517 18.4426 126.435 18.3419C126.246 18.1133 126.128 17.834 126.023 17.5596C125.795 16.9365 125.642 16.2798 125.589 15.6178C125.545 15.1041 125.61 14.5344 125.565 14.0208C125.524 13.4366 125.154 12.9406 124.998 12.3881C124.912 12.0893 124.897 11.7733 124.92 11.4643C124.953 11.0438 125.055 10.6271 125.201 10.2318" stroke="#E2363F" stroke-miterlimit="10" stroke-linecap="round" stroke-linejoin="round"/>
<path d="M137.804 19.8827C137.644 19.49 137.537 19.0722 137.472 18.6536C137.404 18.2297 137.403 17.7939 137.459 17.3688" stroke="#E2363F" stroke-miterlimit="10" stroke-linecap="round" stroke-linejoin="round"/>
<path d="M139.491 8.41351L139.499 8.83249C139.505 9.0248 139.524 9.21979 139.566 9.40753C139.616 9.63495 139.7 9.86047 139.787 10.0761C140.202 11.0705 140.732 12.1167 140.901 13.1886C141.032 13.9663 141.024 14.8031 140.677 15.5262C140.514 15.8692 140.267 16.168 139.984 16.4194C139.505 16.8403 138.932 17.1589 138.322 17.3448C138.051 17.4211 137.749 17.489 137.478 17.3764C137.293 17.2997 137.15 17.1521 137.022 17.0025C136.778 16.7148 136.54 16.371 136.249 16.1283C136.122 16.0226 135.979 15.9318 135.82 15.8841C135.602 15.8196 135.369 15.8417 135.149 15.8803C134.631 15.9677 134.075 16.1974 133.555 16.01C133.202 15.8753 132.93 15.5914 132.706 15.2965C132.328 14.7909 132.067 14.199 131.884 13.5969C131.835 13.4485 131.772 13.3012 131.678 13.1753C131.469 12.9017 131.184 12.6899 130.877 12.5384" stroke="#E2363F" stroke-miterlimit="10" stroke-linecap="round" stroke-linejoin="round"/>
<path d="M129.365 15.3418C129.652 15.3888 129.963 15.4521 130.243 15.3418C130.382 15.2873 130.495 15.1797 130.578 15.0568C130.691 14.8908 130.763 14.6993 130.817 14.507C130.905 14.1849 130.941 13.8472 130.949 13.5137C130.958 12.8746 130.873 12.2163 130.595 11.6352C130.465 11.3711 130.284 11.1208 130.03 10.9644C129.746 10.7881 129.359 10.7251 129.062 10.9033C128.941 10.975 128.852 11.088 128.789 11.2109C128.702 11.3788 128.652 11.5642 128.613 11.7481C128.518 12.1942 128.487 12.7227 128.354 13.1604C128.328 13.2432 128.298 13.3267 128.256 13.403C128.227 13.4553 128.187 13.5133 128.137 13.5431C128.133 13.5454 128.131 13.5465 128.131 13.5465C128.127 13.5488 128.125 13.5496 128.125 13.5496C128.121 13.5515 128.12 13.5522 128.12 13.5522C128.116 13.5541 128.113 13.5549 128.113 13.5549C128.11 13.5564 128.107 13.5572 128.107 13.5572C128.103 13.5587 128.101 13.5591 128.101 13.5591C128.097 13.5603 128.095 13.561 128.095 13.561C128.091 13.5622 128.089 13.5625 128.089 13.5625C128.085 13.5633 128.083 13.5637 128.083 13.5637C128.079 13.5644 128.077 13.5644 128.077 13.5644C128.073 13.5648 128.071 13.5652 128.071 13.5652C128.066 13.5656 128.065 13.5656 128.065 13.5656C128.06 13.5656 128.058 13.5656 128.058 13.5656C128.054 13.5656 128.052 13.5656 128.052 13.5656C128.048 13.5652 128.045 13.5652 128.045 13.5652C127.974 13.5572 127.917 13.5145 127.864 13.4702C127.734 13.355 127.63 13.2092 127.528 13.0688C127.236 12.6532 126.907 12.1274 126.531 11.7886C126.238 11.5169 125.857 11.2731 125.588 10.9762C125.448 10.8247 125.335 10.6473 125.266 10.4527C125.074 9.89975 125.131 9.29266 125.173 8.71915C125.259 7.66637 125.438 6.59871 125.885 5.63407C126.152 5.05102 126.516 4.50688 126.979 4.06196C127.443 3.61399 128.005 3.27209 128.607 3.04429C129.507 2.70468 130.475 2.56426 131.433 2.53412C132.539 2.50435 133.657 2.62722 134.723 2.92638" stroke="#E2363F" stroke-miterlimit="10" stroke-linecap="round" stroke-linejoin="round"/>
<path d="M134.723 2.92641C134.618 3.43048 134.565 3.95019 134.58 4.46532C134.591 5.00144 134.711 5.54824 135.013 5.99851C135.296 6.4274 135.711 6.75099 136.135 7.03221C136.909 7.53437 137.767 7.91595 138.631 8.23648C138.846 8.31241 139.067 8.39178 139.295 8.41506C139.42 8.42727 139.551 8.41811 139.667 8.36431C139.832 8.28837 139.941 8.13307 140.023 7.97662C140.197 7.63282 140.281 7.24856 140.354 6.87271C140.457 6.27706 140.544 5.65394 140.56 5.04952C140.564 4.70801 140.537 4.35962 140.426 4.0349C140.357 3.83419 140.252 3.64607 140.119 3.48123C139.628 2.88329 138.884 2.49522 138.338 1.95414C137.973 1.61683 137.601 1.15664 137.101 1.03034C136.764 0.950207 136.411 1.0395 136.099 1.17343C135.688 1.3585 135.301 1.63552 135.053 2.01672C134.874 2.28955 134.786 2.6097 134.723 2.92641Z" stroke="#E2363F" stroke-miterlimit="10" stroke-linecap="round" stroke-linejoin="round"/>
<path d="M140.103 23.4539C140.134 23.0975 140.13 22.7338 140.061 22.3824C139.964 21.8833 139.804 21.3903 139.569 20.9389C139.387 20.5955 139.147 20.257 138.793 20.075C138.577 19.9624 138.335 19.9113 138.093 19.8926C137.758 19.867 137.414 19.8964 137.08 19.9292C135.875 20.059 134.652 20.2585 133.481 20.5737C132.788 20.766 132.09 20.9976 131.466 21.3609C130.73 21.7803 130.149 22.4068 129.622 23.0593C129.021 23.7919 128.422 24.5616 127.969 25.3965" stroke="#E2363F" stroke-miterlimit="10" stroke-linecap="round" stroke-linejoin="round"/>
<path d="M122.128 54.0547C122.342 52.2315 122.5 50.2927 122.582 48.4588C122.652 47.224 122.629 44.0203 122.635 42.7424C122.668 40.7196 122.798 38.6591 123.256 36.6844C123.786 34.4048 124.757 32.2359 125.966 30.238" stroke="#E2363F" stroke-miterlimit="10" stroke-linecap="round" stroke-linejoin="round"/>
<path d="M122.308 62.9623C122.457 63.9441 122.529 64.9644 122.551 65.9569C122.559 66.4198 122.57 66.9189 122.531 67.3794C122.518 67.4855 122.511 67.5977 122.463 67.6946C122.442 67.7332 122.419 67.7625 122.393 67.7938C122.291 67.9102 122.17 68.0468 122.059 68.1537C121.945 68.2632 121.821 68.3689 121.68 68.4418C121.586 68.4902 121.471 68.5246 121.368 68.5021L121.361 68.5009L121.355 68.4994L121.349 68.4979L121.343 68.4963L121.337 68.4944L121.331 68.4925L121.325 68.4906L121.319 68.4883C121.216 68.4502 121.136 68.3704 121.069 68.2865C120.931 68.1094 120.837 67.9011 120.751 67.6954C120.558 67.2253 120.364 66.5381 120.198 66.0542C120.033 65.5666 119.77 64.9724 119.567 64.4951C119.088 63.3523 118.918 62.0988 118.866 60.8682" stroke="#E2363F" stroke-miterlimit="10" stroke-linecap="round" stroke-linejoin="round"/>
<path d="M135.809 33.9C135.19 36.1841 134.754 38.5774 134.447 40.9234C134.213 42.8011 134.038 44.7258 134.171 46.6173C134.24 47.6365 134.429 48.9453 134.278 49.9527C134.194 50.5632 133.961 51.1451 133.657 51.6782C133.185 52.5249 132.38 53.4934 131.787 54.2676C130.813 55.565 129.817 57.0344 128.555 58.0647C127.691 58.8038 126.162 59.8303 125.263 60.5366C124.626 61.0258 123.88 61.7687 123.298 62.3327C123.061 62.5586 122.805 62.7784 122.495 62.8951C121.971 63.0985 121.384 63.1908 120.833 63.0512C120.47 62.9619 120.146 62.7551 119.881 62.4952C119.579 62.201 119.334 61.8488 119.136 61.4772C118.925 61.0742 118.764 60.6392 118.685 60.1901C118.636 59.9024 118.623 59.6044 118.679 59.3167C118.764 58.8611 119.019 58.4596 119.3 58.0987C119.437 57.9281 119.764 57.5179 119.892 57.3443C120.041 57.1386 120.191 56.9085 120.325 56.6918C120.624 56.1995 121.012 55.5295 121.338 55.0628C121.626 54.6484 121.962 54.2416 122.294 53.8612L124.333 51.6206C124.983 50.883 125.626 50.1084 126.132 49.2632C126.415 48.7835 126.662 48.2707 126.781 47.7231C127.021 46.6295 126.63 45.4703 126.451 44.395C126.34 43.7558 126.277 43.0732 126.236 42.4249C126.143 41.1351 125.991 30.6226 125.948 29.0959C125.95 28.4434 125.953 27.7608 126.215 27.1518C126.478 26.5458 126.987 26.0883 127.51 25.7048C129.188 24.5177 131.194 23.877 133.132 23.249C134.062 22.9658 135.023 22.7063 135.987 22.5766C136.719 22.4782 137.474 22.4721 138.196 22.643C138.913 22.809 139.59 23.1356 140.214 23.5214C141.272 24.1827 142.212 25.0489 142.935 26.0677C143.804 27.2861 144.292 28.7368 144.574 30.1952C144.996 32.4092 144.985 34.6983 144.817 36.9385C144.476 40.8894 143.596 46.8821 143.407 50.8215C143.25 53.6739 143.295 56.6548 143.454 59.5067L143.951 66.3801C143.994 67.2066 144.023 68.0564 143.869 68.8729C143.758 69.4591 143.518 70.0627 143.021 70.4245C142.656 70.6969 142.213 70.843 141.77 70.9316C140.913 71.0953 140.021 71.0693 139.153 71.0289C138.216 70.98 137.278 70.8224 136.387 70.5244C135.681 70.2924 134.987 69.9772 134.324 69.6411C133.222 69.0813 132.069 68.3895 131.017 67.737C130.431 67.3787 128.034 65.7818 127.463 65.5181C127.144 65.3609 126.804 65.2403 126.456 65.167C125.681 65.0098 124.874 65.0106 124.086 65.0434C123.717 65.0652 123.329 65.09 122.967 65.1648C122.828 65.1922 122.663 65.2533 122.528 65.2975" stroke="#E2363F" stroke-miterlimit="10" stroke-linecap="round" stroke-linejoin="round"/>
<line x1="15.7246" y1="51.221" x2="106.854" y2="26.8029" stroke="#36E2DE" stroke-width="2" stroke-dasharray="4 4"/>
</svg>
