<svg width="256" height="130" viewBox="0 0 256 130" fill="none" xmlns="http://www.w3.org/2000/svg">
<path d="M141.527 122.893C141.729 124.152 142.182 125.894 142.394 127.151C142.422 127.356 142.441 127.567 142.432 127.774C142.422 128.018 142.373 128.269 142.231 128.472C142.117 128.637 141.944 128.752 141.759 128.824C141.552 128.905 141.329 128.943 141.108 128.966C140.925 128.985 140.725 128.992 140.541 128.996C139.305 129.015 137.828 128.96 136.588 128.905" stroke="#CAB1AD" stroke-miterlimit="10" stroke-linecap="round" stroke-linejoin="round"/>
<path d="M136.959 123.296C137.853 123.479 138.774 123.586 139.688 123.55C140.131 123.528 140.584 123.489 141.012 123.366C141.158 123.321 141.305 123.253 141.402 123.131C141.465 123.054 141.505 122.961 141.536 122.867C141.595 122.689 141.628 122.501 141.647 122.315C141.674 122.043 141.67 121.765 141.623 121.495C141.574 121.199 141.444 120.869 141.349 120.584C141.278 120.371 141.217 120.151 141.196 119.927C141.168 119.638 141.193 119.344 141.248 119.06C141.34 118.542 141.598 118.006 141.773 117.513C141.878 117.213 141.957 116.899 141.991 116.583C142.055 115.969 142.003 115.335 141.949 114.721C141.858 113.858 141.693 112.323 141.658 111.469C141.603 110.652 141.553 106.461 141.533 105.568C141.441 102.337 141.02 99.0876 140.165 95.9671L139.251 92.7339C138.854 91.2507 138.512 89.7179 138.365 88.1886C138.201 86.5367 138.248 84.7513 138.302 83.0895C138.415 80.5669 138.57 77.8329 138.907 75.3328C139.13 73.7244 139.479 72.076 139.902 70.5081" stroke="#CAB1AD" stroke-miterlimit="10" stroke-linecap="round" stroke-linejoin="round"/>
<path d="M136.778 123.634C137.103 124.494 137.351 125.399 137.414 126.319C137.454 126.93 137.409 127.553 137.287 128.154C137.242 128.348 137.176 128.55 137.029 128.691C136.874 128.841 136.657 128.897 136.45 128.933C136.205 128.973 135.94 128.983 135.691 128.99C134.459 129 125.179 129.007 124.125 128.987C123.687 128.971 123.236 128.958 122.812 128.841C122.593 128.778 122.378 128.676 122.223 128.506C122.092 128.363 122.013 128.18 121.968 127.993C121.913 127.765 121.898 127.527 121.899 127.293C121.902 127.022 121.926 126.747 121.985 126.481C122.015 126.349 122.065 126.216 122.161 126.117C122.255 126.018 122.381 125.955 122.508 125.907C122.989 125.736 123.938 125.636 124.45 125.543C125.166 125.42 125.889 125.258 126.56 124.975C127.674 124.507 128.692 123.777 129.68 123.09" stroke="#CAB1AD" stroke-miterlimit="10" stroke-linecap="round" stroke-linejoin="round"/>
<path d="M134.309 70.7816C134.099 71.0537 133.87 71.3856 133.678 71.6722C133.297 72.2709 132.638 73.2573 132.262 73.8422C132.164 74.0079 132.075 74.1826 132.005 74.362C131.805 74.8672 131.745 75.4189 131.713 75.9577C131.653 77.1841 131.764 78.4609 131.882 79.6827C132.313 83.4237 133.595 92.8549 134.141 96.5382C134.514 99.0101 135.204 102.289 135.595 104.763C136.002 107.275 135.832 110.51 135.924 113.053C135.968 114.359 136.112 115.727 136.286 117.022C136.42 117.961 136.664 119.695 136.735 120.652C136.798 121.279 136.967 122.067 136.996 122.696C137.004 122.874 137.004 123.056 136.972 123.232C136.952 123.34 136.917 123.447 136.855 123.539C136.797 123.626 136.717 123.697 136.629 123.753C136.45 123.866 136.243 123.938 136.045 124.01C135.538 124.189 135.008 124.326 134.479 124.426C133.762 124.558 133.021 124.631 132.293 124.557C131.688 124.492 131.086 124.326 130.554 124.027C130.165 123.803 129.772 123.488 129.664 123.032C129.612 122.819 129.621 122.596 129.645 122.379C129.663 122.187 129.786 121.49 129.818 121.288C129.888 120.839 129.94 120.377 129.925 119.923C129.914 119.554 129.849 119.183 129.77 118.823C129.629 118.199 129.426 117.475 129.43 116.835C129.423 116.412 129.449 115.925 129.384 115.507C129.338 115.203 129.241 114.903 129.137 114.614C128.907 114 128.627 113.314 128.524 112.667C128.354 111.659 128.31 110.48 128.081 109.483C127.808 108.213 127.371 106.639 127.134 105.364C126.797 103.596 126.553 101.706 126.378 99.9148C126.277 98.8189 126.169 96.7882 125.959 95.7323C125.74 94.5689 125.378 93.3952 125.005 92.2718L123.652 88.4159C123.411 87.707 123.084 86.6488 122.868 85.9254L120.521 77.6645L118.628 71.5566C118.439 70.8953 118.231 70.2069 118.15 69.5231C118.105 69.1603 118.147 68.7554 118.166 68.391" stroke="#CAB1AD" stroke-miterlimit="10" stroke-linecap="round" stroke-linejoin="round"/>
<path d="M119.477 33.5837C118.321 32.1474 117.219 30.6165 116.295 29.02L115.652 27.8535C115.371 27.364 115.063 26.8744 114.65 26.4844C114.098 25.9628 113.379 25.6598 112.654 25.4622" stroke="#CAB1AD" stroke-miterlimit="10" stroke-linecap="round" stroke-linejoin="round"/>
<path d="M116.909 36.1082C116.544 35.611 116.047 35.0585 115.67 34.5693C115.445 34.2801 115.193 33.9092 114.919 33.6699C114.76 33.5272 114.576 33.4127 114.379 33.3307C113.799 33.0903 113.08 33.0052 112.487 32.8007C111.813 32.5759 111.174 32.2104 110.692 31.6838C110.273 31.2278 109.977 30.6711 109.708 30.1178C109.411 29.4477 108.973 28.6468 108.777 27.9485C108.728 27.7615 108.696 27.5669 108.705 27.3731C108.728 26.911 109.007 26.5141 109.298 26.1738" stroke="#CAB1AD" stroke-miterlimit="10" stroke-linecap="round" stroke-linejoin="round"/>
<path d="M119.636 42.6565C118.896 42.0822 118.17 41.3908 117.498 40.7371C117.044 40.2884 116.566 39.8118 116.166 39.3158C115.969 39.0628 115.747 38.7793 115.651 38.4694C115.626 38.3801 115.617 38.2859 115.63 38.1939C115.647 38.0771 115.698 37.968 115.754 37.8654C116.423 36.7401 117.193 35.6488 118.058 34.6654C118.283 34.4163 118.522 34.169 118.783 33.9568C118.934 33.8355 119.096 33.7199 119.274 33.6436C119.396 33.5921 119.532 33.5596 119.664 33.5871C119.883 33.6329 120.045 33.8046 120.188 33.9641L120.561 34.4014C120.617 34.4651 120.774 34.6361 120.834 34.7005" stroke="#CAB1AD" stroke-miterlimit="10" stroke-linecap="round" stroke-linejoin="round"/>
<path d="M108.113 21.3247C107.986 21.3136 107.856 21.3529 107.757 21.4323C107.66 21.5082 107.593 21.6208 107.573 21.7417C107.557 21.8344 107.567 21.9317 107.603 22.0191C107.602 22.0241 110.804 29.8617 110.805 29.8675C110.823 29.9094 110.846 29.9503 110.872 29.9877C110.955 30.1067 111.078 30.1975 111.217 30.241C111.261 30.2548 111.306 30.2643 111.352 30.2689C111.363 30.2765 113.897 30.4753 113.908 30.481C113.95 30.4845 113.993 30.4826 114.035 30.4757C114.184 30.4513 114.319 30.3559 114.392 30.2239C114.447 30.1243 114.468 30.0052 114.448 29.8926C114.442 29.8564 114.432 29.8205 114.418 29.7866L111.221 21.9489C111.211 21.9249 111.198 21.8993 111.186 21.8764C111.106 21.7322 110.971 21.62 110.815 21.5681C110.772 21.5536 110.726 21.5433 110.681 21.538C110.675 21.5391 110.663 21.5349 110.658 21.5357C110.658 21.5357 108.113 21.3247 108.113 21.3247Z" stroke="#CAB1AD" stroke-miterlimit="10" stroke-linecap="round" stroke-linejoin="round"/>
<path d="M128.212 21.5197C128.118 21.3556 128.022 21.182 127.873 21.061C127.789 20.9915 127.687 20.9458 127.579 20.9293C127.435 20.9061 127.287 20.9187 127.144 20.9385C126.758 20.9942 126.338 21.132 125.95 21.1747C125.742 21.1965 125.519 21.1961 125.327 21.1014C125.116 20.9992 124.997 20.7824 124.894 20.5813C124.778 20.3516 124.67 20.0708 124.495 19.8815C124.364 19.735 124.185 19.624 124.057 19.4763C123.913 19.3141 123.867 19.0772 123.8 18.8768C123.773 18.7978 123.742 18.7189 123.695 18.6494C123.623 18.5414 123.517 18.4426 123.435 18.3419C123.246 18.1133 123.128 17.834 123.023 17.5596C122.795 16.9365 122.642 16.2798 122.589 15.6178C122.545 15.1041 122.61 14.5344 122.565 14.0208C122.524 13.4366 122.154 12.9406 121.998 12.3881C121.912 12.0893 121.897 11.7733 121.92 11.4643C121.953 11.0438 122.055 10.6271 122.201 10.2318" stroke="#CAB1AD" stroke-miterlimit="10" stroke-linecap="round" stroke-linejoin="round"/>
<path d="M134.804 19.8827C134.644 19.49 134.537 19.0722 134.472 18.6536C134.404 18.2297 134.403 17.7939 134.459 17.3688" stroke="#CAB1AD" stroke-miterlimit="10" stroke-linecap="round" stroke-linejoin="round"/>
<path d="M136.491 8.41351L136.499 8.83249C136.505 9.0248 136.524 9.21979 136.566 9.40753C136.616 9.63495 136.7 9.86047 136.787 10.0761C137.202 11.0705 137.732 12.1167 137.901 13.1886C138.032 13.9663 138.024 14.8031 137.677 15.5262C137.514 15.8692 137.267 16.168 136.984 16.4194C136.505 16.8403 135.932 17.1589 135.322 17.3448C135.051 17.4211 134.749 17.489 134.478 17.3764C134.293 17.2997 134.15 17.1521 134.022 17.0025C133.778 16.7148 133.54 16.371 133.249 16.1283C133.122 16.0226 132.979 15.9318 132.82 15.8841C132.602 15.8196 132.369 15.8417 132.149 15.8803C131.631 15.9677 131.075 16.1974 130.555 16.01C130.202 15.8753 129.93 15.5914 129.706 15.2965C129.328 14.7909 129.067 14.199 128.884 13.5969C128.835 13.4485 128.772 13.3012 128.678 13.1753C128.469 12.9017 128.184 12.6899 127.877 12.5384" stroke="#CAB1AD" stroke-miterlimit="10" stroke-linecap="round" stroke-linejoin="round"/>
<path d="M126.365 15.3418C126.652 15.3888 126.963 15.4521 127.243 15.3418C127.382 15.2873 127.495 15.1797 127.578 15.0568C127.691 14.8908 127.763 14.6993 127.817 14.507C127.905 14.1849 127.941 13.8472 127.949 13.5137C127.958 12.8746 127.873 12.2163 127.595 11.6352C127.465 11.3711 127.284 11.1208 127.03 10.9644C126.746 10.7881 126.359 10.7251 126.062 10.9033C125.941 10.975 125.852 11.088 125.789 11.2109C125.702 11.3788 125.652 11.5642 125.613 11.7481C125.518 12.1942 125.487 12.7227 125.354 13.1604C125.328 13.2432 125.298 13.3267 125.256 13.403C125.227 13.4553 125.187 13.5133 125.137 13.5431C125.133 13.5454 125.131 13.5465 125.131 13.5465C125.127 13.5488 125.125 13.5496 125.125 13.5496C125.121 13.5515 125.12 13.5522 125.12 13.5522C125.116 13.5541 125.113 13.5549 125.113 13.5549C125.11 13.5564 125.107 13.5572 125.107 13.5572C125.103 13.5587 125.101 13.5591 125.101 13.5591C125.097 13.5603 125.095 13.561 125.095 13.561C125.091 13.5622 125.089 13.5625 125.089 13.5625C125.085 13.5633 125.083 13.5637 125.083 13.5637C125.079 13.5644 125.077 13.5644 125.077 13.5644C125.073 13.5648 125.071 13.5652 125.071 13.5652C125.066 13.5656 125.065 13.5656 125.065 13.5656C125.06 13.5656 125.058 13.5656 125.058 13.5656C125.054 13.5656 125.052 13.5656 125.052 13.5656C125.048 13.5652 125.045 13.5652 125.045 13.5652C124.974 13.5572 124.917 13.5145 124.864 13.4702C124.734 13.355 124.63 13.2092 124.528 13.0688C124.236 12.6532 123.907 12.1274 123.531 11.7886C123.238 11.5169 122.857 11.2731 122.588 10.9762C122.448 10.8247 122.335 10.6473 122.266 10.4527C122.074 9.89975 122.131 9.29266 122.173 8.71915C122.259 7.66637 122.438 6.59871 122.885 5.63407C123.152 5.05102 123.516 4.50688 123.979 4.06196C124.443 3.61399 125.005 3.27209 125.607 3.04429C126.507 2.70468 127.475 2.56426 128.433 2.53412C129.539 2.50435 130.657 2.62722 131.723 2.92638" stroke="#CAB1AD" stroke-miterlimit="10" stroke-linecap="round" stroke-linejoin="round"/>
<path d="M131.723 2.92641C131.618 3.43048 131.565 3.95019 131.58 4.46532C131.591 5.00144 131.711 5.54824 132.013 5.99851C132.296 6.4274 132.711 6.75099 133.135 7.03221C133.909 7.53437 134.767 7.91595 135.631 8.23648C135.846 8.31241 136.067 8.39178 136.295 8.41506C136.42 8.42727 136.551 8.41811 136.667 8.36431C136.832 8.28837 136.941 8.13307 137.023 7.97662C137.197 7.63282 137.281 7.24856 137.354 6.87271C137.457 6.27706 137.544 5.65394 137.56 5.04952C137.564 4.70801 137.537 4.35962 137.426 4.0349C137.357 3.83419 137.252 3.64607 137.119 3.48123C136.628 2.88329 135.884 2.49522 135.338 1.95414C134.973 1.61683 134.601 1.15664 134.101 1.03034C133.764 0.950207 133.411 1.0395 133.099 1.17343C132.688 1.3585 132.301 1.63552 132.053 2.01672C131.874 2.28955 131.786 2.6097 131.723 2.92641Z" stroke="#CAB1AD" stroke-miterlimit="10" stroke-linecap="round" stroke-linejoin="round"/>
<path d="M137.103 23.4539C137.134 23.0975 137.13 22.7338 137.061 22.3824C136.964 21.8833 136.804 21.3903 136.569 20.9389C136.387 20.5955 136.147 20.257 135.793 20.075C135.577 19.9624 135.335 19.9113 135.093 19.8926C134.758 19.867 134.414 19.8964 134.08 19.9292C132.875 20.059 131.652 20.2585 130.481 20.5737C129.788 20.766 129.09 20.9976 128.466 21.3609C127.73 21.7803 127.149 22.4068 126.622 23.0593C126.021 23.7919 125.422 24.5616 124.969 25.3965" stroke="#CAB1AD" stroke-miterlimit="10" stroke-linecap="round" stroke-linejoin="round"/>
<path d="M119.128 54.0547C119.342 52.2315 119.5 50.2927 119.582 48.4588C119.652 47.224 119.629 44.0203 119.635 42.7424C119.668 40.7196 119.798 38.6591 120.256 36.6844C120.786 34.4048 121.757 32.2359 122.966 30.238" stroke="#CAB1AD" stroke-miterlimit="10" stroke-linecap="round" stroke-linejoin="round"/>
<path d="M119.308 62.9623C119.457 63.9441 119.529 64.9644 119.551 65.9569C119.559 66.4198 119.57 66.9189 119.531 67.3794C119.518 67.4855 119.511 67.5977 119.463 67.6946C119.442 67.7332 119.419 67.7625 119.393 67.7938C119.291 67.9102 119.17 68.0468 119.059 68.1537C118.945 68.2632 118.821 68.3689 118.68 68.4418C118.586 68.4902 118.471 68.5246 118.368 68.5021L118.361 68.5009L118.355 68.4994L118.349 68.4979L118.343 68.4963L118.337 68.4944L118.331 68.4925L118.325 68.4906L118.319 68.4883C118.216 68.4502 118.136 68.3704 118.069 68.2865C117.931 68.1094 117.837 67.9011 117.751 67.6954C117.558 67.2253 117.364 66.5381 117.198 66.0542C117.033 65.5666 116.77 64.9724 116.567 64.4951C116.088 63.3523 115.918 62.0988 115.866 60.8682" stroke="#CAB1AD" stroke-miterlimit="10" stroke-linecap="round" stroke-linejoin="round"/>
<path d="M132.809 33.9C132.19 36.1841 131.754 38.5774 131.447 40.9234C131.213 42.8011 131.038 44.7258 131.171 46.6173C131.24 47.6365 131.429 48.9453 131.278 49.9527C131.194 50.5632 130.961 51.1451 130.657 51.6782C130.185 52.5249 129.38 53.4934 128.787 54.2676C127.813 55.565 126.817 57.0344 125.555 58.0647C124.691 58.8038 123.162 59.8303 122.263 60.5366C121.626 61.0258 120.88 61.7687 120.298 62.3327C120.061 62.5586 119.805 62.7784 119.495 62.8951C118.971 63.0985 118.384 63.1908 117.833 63.0512C117.47 62.9619 117.146 62.7551 116.881 62.4952C116.579 62.201 116.334 61.8488 116.136 61.4772C115.925 61.0742 115.764 60.6392 115.685 60.1901C115.636 59.9024 115.623 59.6044 115.679 59.3167C115.764 58.8611 116.019 58.4596 116.3 58.0987C116.437 57.9281 116.764 57.5179 116.892 57.3443C117.041 57.1386 117.191 56.9085 117.325 56.6918C117.624 56.1995 118.012 55.5295 118.338 55.0628C118.626 54.6484 118.962 54.2416 119.294 53.8612L121.333 51.6206C121.983 50.883 122.626 50.1084 123.132 49.2632C123.415 48.7835 123.662 48.2707 123.781 47.7231C124.021 46.6295 123.63 45.4703 123.451 44.395C123.34 43.7558 123.277 43.0732 123.236 42.4249C123.143 41.1351 122.991 30.6226 122.948 29.0959C122.95 28.4434 122.953 27.7608 123.215 27.1518C123.478 26.5458 123.987 26.0883 124.51 25.7048C126.188 24.5177 128.194 23.877 130.132 23.249C131.062 22.9658 132.023 22.7063 132.987 22.5766C133.719 22.4782 134.474 22.4721 135.196 22.643C135.913 22.809 136.59 23.1356 137.214 23.5214C138.272 24.1827 139.212 25.0489 139.935 26.0677C140.804 27.2861 141.292 28.7368 141.574 30.1952C141.996 32.4092 141.985 34.6983 141.817 36.9385C141.476 40.8894 140.596 46.8821 140.407 50.8215C140.25 53.6739 140.295 56.6548 140.454 59.5067L140.951 66.3801C140.994 67.2066 141.023 68.0564 140.869 68.8729C140.758 69.4591 140.518 70.0627 140.021 70.4245C139.656 70.6969 139.213 70.843 138.77 70.9316C137.913 71.0953 137.021 71.0693 136.153 71.0289C135.216 70.98 134.278 70.8224 133.387 70.5244C132.681 70.2924 131.987 69.9772 131.324 69.6411C130.222 69.0813 129.069 68.3895 128.017 67.737C127.431 67.3787 125.034 65.7818 124.463 65.5181C124.144 65.3609 123.804 65.2403 123.456 65.167C122.681 65.0098 121.874 65.0106 121.086 65.0434C120.717 65.0652 120.329 65.09 119.967 65.1648C119.828 65.1922 119.663 65.2533 119.528 65.2975" stroke="#CAB1AD" stroke-miterlimit="10" stroke-linecap="round" stroke-linejoin="round"/>
<line x1="14.3976" y1="49.7375" x2="101.663" y2="26.3546" stroke="#E2363F" stroke-width="4" stroke-linecap="round"/>
</svg>
