<svg width="256" height="96" viewBox="0 0 256 96" fill="none" xmlns="http://www.w3.org/2000/svg">
<rect x="106.5" y="8.5" width="44" height="79" rx="3.5" stroke="#CAB1AD"/>
<path d="M135.5 44H134.5V42C134.5 39.24 132.26 37 129.5 37C126.74 37 124.5 39.24 124.5 42V44H123.5C122.4 44 121.5 44.9 121.5 46V56C121.5 57.1 122.4 58 123.5 58H135.5C136.6 58 137.5 57.1 137.5 56V46C137.5 44.9 136.6 44 135.5 44ZM126.5 42C126.5 40.34 127.84 39 129.5 39C131.16 39 132.5 40.34 132.5 42V44H126.5V42ZM135.5 56H123.5V46H135.5V56ZM129.5 53C130.6 53 131.5 52.1 131.5 51C131.5 49.9 130.6 49 129.5 49C128.4 49 127.5 49.9 127.5 51C127.5 52.1 128.4 53 129.5 53Z" fill="#E2363F"/>
<line x1="106" y1="12.5" x2="151" y2="12.5" stroke="#CAB1AD"/>
<line x1="106" y1="83.5" x2="151" y2="83.5" stroke="#CAB1AD"/>
</svg>
