<svg width="256" height="130" viewBox="0 0 256 130" fill="none" xmlns="http://www.w3.org/2000/svg">
<path d="M104.056 55.3783C106.794 49.3342 109.381 42.8927 111.54 36.6199" stroke="#CAB1AD" stroke-miterlimit="10" stroke-linecap="round" stroke-linejoin="round"/>
<path d="M102.191 58.6224L102.02 58.419C101.831 58.1913 101.655 57.9445 101.559 57.6625C101.475 57.4196 101.46 57.1571 101.48 56.9023C101.516 56.4688 101.637 56.0429 101.771 55.6308C102.009 54.9158 102.356 54.1222 102.654 53.4272C105.363 47.5264 108.895 39.5639 111.43 33.565" stroke="#CAB1AD" stroke-miterlimit="10" stroke-linecap="round" stroke-linejoin="round"/>
<path d="M114.544 79.3239L100.873 75.6501C100.843 75.6401 100.801 75.6315 100.772 75.6211C100.634 75.5791 100.497 75.5267 100.367 75.4667C99.9299 75.2647 99.5402 74.9603 99.2382 74.585C98.8504 74.1048 98.6094 73.5084 98.5551 72.8939C98.5293 72.6085 98.5432 72.3184 98.5956 72.0364C98.6103 71.9568 98.6294 71.8735 98.6503 71.7953C98.6594 71.7615 102.542 57.3119 102.551 57.2809C102.566 57.2271 102.585 57.1656 102.603 57.1123C102.777 56.6045 103.083 56.1419 103.484 55.7851C104.04 55.2849 104.78 54.9953 105.529 54.9853C105.75 54.982 105.974 55.0015 106.19 55.0448C106.257 55.0586 106.33 55.0744 106.396 55.0929L110.785 56.2724" stroke="#CAB1AD" stroke-miterlimit="10" stroke-linecap="round" stroke-linejoin="round"/>
<path d="M124.782 88.3487C124.257 90.469 123.384 92.5974 122.543 94.6129C122.012 95.8634 121.357 97.0881 120.419 98.0832C119.595 98.9712 118.581 99.7586 117.62 100.497C116.127 101.618 114.531 102.837 113.198 104.135C111.324 105.929 109.574 108.043 107.943 110.064C106.029 112.46 104.024 115.087 102.269 117.601C102.119 117.795 101.96 118.004 101.732 118.108C101.595 118.171 101.439 118.176 101.293 118.148C100.937 118.076 100.619 117.878 100.32 117.68C99.4042 117.043 98.5758 116.234 97.7732 115.462C97.4492 115.132 95.5919 113.309 95.3251 112.998C95.1774 112.828 95.0331 112.647 94.9388 112.44C94.8859 112.324 94.8511 112.196 94.8521 112.067C94.8525 111.956 94.8816 111.846 94.9259 111.744C95.0407 111.486 95.2327 111.27 95.4228 111.065C95.7114 110.759 96.1716 110.333 96.4565 110.023C96.7895 109.664 97.1072 109.257 97.3987 108.863C98.0213 108.006 98.7935 106.895 99.5257 106.139C100.379 105.235 101.42 104.259 102.248 103.333C103.114 102.389 104.951 99.9806 105.769 98.954C106.667 97.8379 107.635 96.7323 108.72 95.7938L110.34 94.4033C111.053 93.7721 111.745 93.0742 112.088 92.1672C112.355 91.5108 112.501 90.6805 112.668 89.9917C112.835 89.2428 113.248 88.2172 113.514 87.4903C113.779 86.7662 113.973 86.0073 114.047 85.2389C114.185 83.8722 114.162 82.2674 114.324 80.905C114.591 78.5412 115.157 76.1537 115.786 73.8609" stroke="#CAB1AD" stroke-miterlimit="10" stroke-linecap="round" stroke-linejoin="round"/>
<path d="M95.4812 113.17C95.3635 113.228 95.1244 113.341 95.0053 113.395L93.3261 114.134C92.5863 114.47 91.8493 114.858 91.2539 115.419C90.7685 115.868 90.3574 116.4 90.0291 116.974C89.8591 117.279 89.6923 117.595 89.6047 117.934C89.5718 118.066 89.5552 118.205 89.5666 118.341C89.5771 118.475 89.6152 118.606 89.6671 118.73C89.7967 119.038 90.0006 119.311 90.2078 119.571C91.4563 121.07 93.3427 122.835 94.7414 124.22C95.3068 124.783 95.878 125.389 96.3605 126.026L97.1651 127.099C97.46 127.482 97.7773 127.86 98.1664 128.15C98.5361 128.43 98.9625 128.634 99.4074 128.762C100.059 128.951 100.75 128.989 101.425 128.997C102.221 128.993 104.689 129.011 105.442 128.987C105.684 128.976 105.938 128.962 106.177 128.927C106.361 128.899 106.549 128.862 106.717 128.779C106.844 128.718 106.955 128.622 107.024 128.498C107.086 128.388 107.119 128.263 107.14 128.139C107.177 127.91 107.186 127.668 107.192 127.435C107.196 127.083 107.185 126.721 107.137 126.371C107.113 126.207 107.084 126.038 107.015 125.885C106.958 125.757 106.861 125.654 106.736 125.59C106.669 125.554 106.597 125.527 106.524 125.504C106.245 125.417 105.928 125.361 105.639 125.307C104.784 125.157 103.499 124.963 102.668 124.757C102.51 124.715 102.347 124.667 102.197 124.602C101.899 124.475 101.663 124.237 101.466 123.986C101.348 123.83 101.246 123.659 101.186 123.472C101.142 123.335 101.125 123.189 101.123 123.045C101.112 122.59 101.279 121.495 101.324 121.031C101.424 120.089 101.469 119.112 101.465 118.163" stroke="#CAB1AD" stroke-miterlimit="10" stroke-linecap="round" stroke-linejoin="round"/>
<path d="M135.245 124.234C135.113 124.995 134.95 125.863 134.876 126.63C134.838 127.016 134.807 127.413 134.826 127.801C134.838 128.018 134.861 128.24 134.949 128.441C134.999 128.554 135.077 128.655 135.179 128.724C135.393 128.868 135.661 128.898 135.912 128.925C136.878 129.014 140.52 128.984 141.558 128.999C143.219 128.981 146.158 129.004 147.78 128.912C148.694 128.866 149.633 128.799 150.527 128.599C151.406 128.405 152.276 128.041 153.111 127.71C154.018 127.328 154.975 126.949 155.799 126.406C156.007 126.259 156.212 126.091 156.335 125.864C156.41 125.724 156.442 125.564 156.436 125.406C156.413 124.985 156.234 124.562 156.059 124.182C155.943 123.942 155.812 123.697 155.664 123.475C155.613 123.4 155.557 123.326 155.489 123.265C155.371 123.154 155.213 123.108 155.055 123.1C154.673 123.085 154.266 123.174 153.889 123.235C152.643 123.465 151.251 123.802 149.983 123.68C149.716 123.659 149.446 123.625 149.186 123.559C148.83 123.47 148.481 123.333 148.146 123.183C146.816 122.571 145.52 121.747 144.283 120.966" stroke="#CAB1AD" stroke-miterlimit="10" stroke-linecap="round" stroke-linejoin="round"/>
<path d="M112.668 66.4206C112.802 67.42 112.96 68.4404 113.27 69.3998C113.553 70.3006 113.976 71.1628 114.472 71.9646C115.63 73.8272 117.106 75.5406 118.576 77.1641C119.311 77.9816 120.496 79.1987 121.133 80.0709C121.817 80.9627 122.325 81.984 122.725 83.0315C123.303 84.5611 123.923 86.4776 124.608 87.9567C125.601 90.179 127.04 92.9795 127.865 95.258C128.304 96.4575 128.687 97.706 128.866 98.9732C129.035 100.174 129.091 101.631 129.278 102.828C129.447 103.939 129.729 105.079 130.018 106.165C130.942 109.303 132.312 114.312 133.069 117.48C133.399 118.808 134.033 120.745 134.462 122.062C134.56 122.379 134.661 122.732 134.732 123.055C134.78 123.259 134.811 123.523 134.876 123.723C134.932 123.911 135.038 124.085 135.199 124.201C135.509 124.421 135.909 124.506 136.28 124.559C136.99 124.647 137.731 124.604 138.404 124.35C139.198 124.047 139.893 123.468 140.629 123.053C141.579 122.499 142.763 122.093 143.693 121.503C143.944 121.334 144.206 121.142 144.341 120.863C144.42 120.697 144.431 120.506 144.395 120.328C144.355 120.12 144.265 119.922 144.168 119.734C143.571 118.644 142.455 117.052 141.823 115.976C141.648 115.68 141.476 115.365 141.337 115.05C141.12 114.565 140.982 114.041 140.938 113.51C140.85 112.397 140.929 111.212 140.732 110.108C140.442 108.216 139.443 105.413 138.895 103.559C138.626 102.655 138.101 101.233 137.846 100.323C137.793 100.111 137.751 99.8878 137.733 99.6692C137.682 99.0465 137.849 98.3448 137.92 97.7308C138.016 97.0067 138.001 96.2645 137.942 95.5376C137.82 93.9556 136.998 88.6674 136.784 87.0392C136.579 85.6673 136.331 84.1967 135.986 82.8519C135.27 79.8885 133.047 74.7037 131.971 71.8231C131.779 71.3019 131.58 70.7613 131.506 70.2087C131.466 69.9171 131.473 69.6175 131.496 69.325C131.53 68.9215 131.596 68.3827 131.572 67.9826C131.549 67.4867 131.454 66.9884 131.343 66.5054" stroke="#CAB1AD" stroke-miterlimit="10" stroke-linecap="round" stroke-linejoin="round"/>
<path d="M119.269 19.224C120.159 18.2308 120.773 16.997 120.988 15.6784" stroke="#CAB1AD" stroke-miterlimit="10" stroke-linecap="round" stroke-linejoin="round"/>
<path d="M122.859 15.0967C122.831 15.2634 122.79 15.4335 122.703 15.5802C122.651 15.6669 122.577 15.7431 122.481 15.7774C122.409 15.8041 122.332 15.8117 122.256 15.8117C122.061 15.8132 121.844 15.7617 121.651 15.7393C121.432 15.7036 121.154 15.7403 120.954 15.6669C120.771 15.6007 120.696 15.4073 120.648 15.2344C120.592 15.0276 120.566 14.8018 120.541 14.5889C120.491 14.0844 120.432 13.5023 120.309 13.015C120.128 12.2747 119.823 11.4711 119.663 10.726C119.507 10.0134 119.448 9.27406 119.471 8.54522C119.512 7.49864 119.699 6.37536 120.429 5.57602C120.653 5.32449 120.918 5.10823 121.195 4.9172C121.555 4.67044 122.015 4.41035 122.346 4.12595C122.754 3.77725 123.014 3.27183 123.39 2.89312C123.697 2.56966 124.069 2.3129 124.459 2.09901C124.894 1.86035 125.356 1.66266 125.823 1.49784C126.452 1.27871 127.105 1.11198 127.767 1.03576C128.209 0.988597 128.664 0.975736 129.099 1.07482C129.575 1.18057 129.994 1.45258 130.359 1.76746L130.857 2.20048C131.473 2.75592 132.316 3.06985 133.07 3.39473C133.602 3.62481 134.132 3.89587 134.546 4.30888C134.822 4.57993 135.049 4.90958 135.161 5.28258C135.271 5.64414 135.296 6.04857 135.471 6.3887C135.657 6.75169 136.027 7.03894 136.295 7.3381C136.46 7.5196 136.617 7.72253 136.683 7.96262C136.733 8.14793 136.724 8.34419 136.692 8.53188C136.618 8.96394 136.414 9.39315 136.297 9.81379C136.22 10.072 136.212 10.4035 136.059 10.6265C136.002 10.7094 135.922 10.7746 135.835 10.8246C135.623 10.9447 135.38 11.0014 135.14 11.0323C134.857 11.0657 134.565 11.0614 134.287 10.9937" stroke="#CAB1AD" stroke-miterlimit="10" stroke-linecap="round" stroke-linejoin="round"/>
<path d="M126.967 25.3386C127.493 25.6349 128.087 25.8526 128.654 26.0579C129.007 26.178 129.374 26.2833 129.747 26.319C129.969 26.339 130.2 26.3337 130.414 26.2613C130.935 26.0784 131.191 25.5301 131.401 25.0585C131.601 24.565 131.994 23.7032 132.147 23.2002C132.228 22.933 132.285 22.6538 132.287 22.3737C132.293 21.8102 132.091 21.2252 131.932 20.6897C131.874 20.4892 131.823 20.2639 131.917 20.0662C132.013 19.8685 132.193 19.7137 132.335 19.5493C132.457 19.4107 132.579 19.2606 132.627 19.0787C132.657 18.9648 132.646 18.8429 132.611 18.7314C132.552 18.5513 132.433 18.3803 132.262 18.2908C132.112 18.2098 131.947 18.2598 131.799 18.3198C131.666 18.3722 131.515 18.4413 131.375 18.4642C131.289 18.4799 131.2 18.4804 131.113 18.4713C130.694 18.4213 130.279 18.2193 129.867 18.1359C129.654 18.0888 129.433 18.0754 129.216 18.0993C128.881 18.1317 128.518 18.2426 128.185 18.2869C128.041 18.3051 127.892 18.3117 127.749 18.2817C127.335 18.196 127.048 17.8373 126.867 17.4766C126.677 17.0956 126.565 16.6759 126.52 16.2533C126.467 15.7532 126.514 15.2353 126.7 14.7656C126.896 14.2593 127.276 13.8524 127.662 13.4818C128.237 12.9335 128.941 12.3586 129.316 11.6497C129.504 11.3005 129.608 10.9109 129.685 10.5236C129.797 10.0001 129.834 9.30218 130.039 8.80533C130.095 8.67814 130.17 8.55476 130.281 8.46806C130.472 8.31991 130.728 8.30419 130.96 8.32705C131.469 8.38565 131.948 8.59477 132.407 8.81009C132.947 9.07209 133.501 9.37649 133.859 9.87239C134.395 10.6212 134.375 11.5992 134.278 12.4762C134.174 13.3041 134.041 14.1511 133.819 14.9557C133.746 15.2144 133.63 15.4826 133.632 15.7551C133.633 16.0371 133.741 16.431 133.797 16.7092C133.86 17.015 133.91 17.3314 133.928 17.6429C133.937 17.8196 133.939 18.0011 133.903 18.175C133.884 18.2698 133.846 18.3722 133.773 18.4361C133.692 18.5075 133.59 18.5328 133.488 18.5551C133.189 18.6147 132.881 18.6547 132.577 18.6428" stroke="#CAB1AD" stroke-miterlimit="10" stroke-linecap="round" stroke-linejoin="round"/>
<path d="M124.478 16.0199C124.039 16.0366 123.547 15.9847 123.214 15.6693C122.955 15.4178 122.831 15.0639 122.743 14.7223C122.632 14.2507 122.565 13.7624 122.556 13.2775C122.556 12.8516 122.599 12.3948 122.846 12.0346C123.003 11.8117 123.245 11.6564 123.507 11.5878C123.766 11.5197 124.052 11.533 124.293 11.655C124.543 11.7817 124.726 12.0084 124.858 12.2509C125.358 13.1846 125.219 14.2821 125.046 15.2839C124.943 15.887 124.828 16.5473 124.648 17.1308C124.523 17.5819 124.23 18.216 124.054 18.6533C123.9 19.0382 123.768 19.4393 123.703 19.8494C123.566 20.725 123.643 21.6272 123.842 22.4871" stroke="#CAB1AD" stroke-miterlimit="10" stroke-linecap="round" stroke-linejoin="round"/>
<path d="M126.779 28.6408C127.67 30.6373 128.389 32.7747 128.99 34.876C129.416 36.3727 129.829 37.9824 130.125 39.5087C130.437 41.1002 130.657 42.8018 130.806 44.4176" stroke="#CAB1AD" stroke-miterlimit="10" stroke-linecap="round" stroke-linejoin="round"/>
<path d="M116.735 21.8506C116.647 21.7239 116.636 21.561 116.65 21.4119C116.687 21.0703 116.823 20.7454 116.965 20.4358C117.153 20.0437 117.378 19.6617 117.666 19.3344C117.816 19.1696 117.985 19.0091 118.196 18.9281C118.388 18.8538 118.599 18.8843 118.786 18.9614C119.062 19.0734 119.327 19.2635 119.575 19.4268C121.574 20.7816 123.633 22.1931 125.412 23.829C125.736 24.1295 126.599 24.9446 126.91 25.2666C126.958 25.3219 126.999 25.3833 127.027 25.4505C127.072 25.5544 127.084 25.6692 127.088 25.7811C127.093 25.9902 127.066 26.2051 127.042 26.4128C126.999 26.7243 126.891 27.4189 126.866 27.7209C126.846 27.9257 126.83 28.314 126.801 28.5159C126.788 28.6007 126.774 28.6932 126.727 28.766C126.724 28.7703 126.723 28.7722 126.723 28.7722C126.72 28.776 126.719 28.7779 126.719 28.7779C126.716 28.7818 126.714 28.7832 126.714 28.7832C126.71 28.7865 126.709 28.7884 126.709 28.7884C126.706 28.7918 126.704 28.7932 126.704 28.7932C126.701 28.796 126.699 28.7975 126.699 28.7975C126.696 28.8003 126.694 28.8018 126.694 28.8018C126.69 28.8041 126.689 28.8056 126.689 28.8056C126.685 28.808 126.683 28.8089 126.683 28.8089C126.679 28.8108 126.678 28.8118 126.678 28.8118C126.674 28.8137 126.672 28.8146 126.672 28.8146C126.668 28.8161 126.666 28.817 126.666 28.817C126.662 28.8184 126.66 28.8189 126.66 28.8189C126.658 28.8194 126.655 28.8203 126.655 28.8203C126.651 28.8208 126.649 28.8218 126.649 28.8218C126.645 28.8222 126.642 28.8227 126.642 28.8227C126.639 28.8232 126.635 28.8232 126.635 28.8232C126.632 28.8232 126.629 28.8232 126.629 28.8232C126.625 28.8232 126.621 28.8232 126.621 28.8232C126.618 28.8232 126.614 28.8227 126.614 28.8227C126.61 28.8222 126.607 28.8218 126.607 28.8218C126.603 28.8213 126.599 28.8203 126.599 28.8203C126.596 28.8194 126.592 28.8189 126.592 28.8189C126.588 28.818 126.584 28.817 126.584 28.817C126.479 28.7851 126.394 28.7098 126.312 28.6398C126.15 28.4959 125.99 28.3187 125.844 28.1568C125.32 27.5561 124.732 26.8496 124.175 26.2827C123.174 25.2547 122.068 24.301 120.826 23.5741C119.73 22.9362 118.522 22.4789 117.299 22.1483C117.099 22.0864 116.863 22.0269 116.735 21.8506Z" stroke="#CAB1AD" stroke-miterlimit="10" stroke-linecap="round" stroke-linejoin="round"/>
<path d="M131.657 51.6322C131.991 52.8331 132.271 54.2646 132.51 55.4946C132.712 56.6579 133.02 58.1656 133.169 59.3313C133.359 60.7947 133.442 62.3119 133.075 63.7548C132.894 64.4627 132.602 65.1534 132.149 65.7322C131.835 66.1371 131.438 66.4796 130.989 66.7274C130.277 67.1223 129.47 67.3138 128.67 67.4319C127.735 67.5672 126.745 67.601 125.8 67.6163C123.597 67.6329 121.234 67.5829 119.039 67.4271C117.329 67.2985 115.563 67.117 113.887 66.7459C112.565 66.4558 111.252 65.9899 110.156 65.1777C109.869 64.9643 109.59 64.728 109.343 64.4684C109.248 64.3655 109.16 64.2507 109.107 64.1192C109.043 63.9659 109.026 63.7972 109.028 63.6329C109.031 63.368 109.078 63.0984 109.126 62.8383C109.311 61.8527 109.966 59.6962 110.235 58.702C110.849 56.4955 111.136 54.1646 111.319 51.8847C111.576 48.8112 111.758 45.528 111.769 42.4436C111.795 40.4409 111.595 37.4641 111.476 35.4352C111.421 34.2615 111.399 33.0467 111.498 31.8754C111.622 30.3786 111.962 28.8909 112.48 27.4818C112.876 26.4138 113.375 25.3648 114.029 24.4293C114.742 23.3951 115.711 22.5662 116.735 21.8516" stroke="#CAB1AD" stroke-miterlimit="10" stroke-linecap="round" stroke-linejoin="round"/>
<path d="M149.173 34.4473L152.465 30.9283C152.485 30.9064 152.508 30.885 152.532 30.8664C152.61 30.8054 152.703 30.7649 152.8 30.7487C153.038 30.7073 153.289 30.8259 153.407 31.0355C153.467 31.1384 153.495 31.2599 153.485 31.3785C153.477 31.48 153.442 31.5795 153.385 31.6638C153.368 31.6886 153.348 31.7134 153.328 31.7353L150.848 34.3868" stroke="#CAB1AD" stroke-miterlimit="10" stroke-linecap="round" stroke-linejoin="round"/>
<path d="M141.951 39.9255L142.143 39.632C142.606 38.9484 143.433 37.7775 143.81 37.0596C143.964 36.7967 144.142 36.5437 144.36 36.3294C144.802 35.8983 145.345 35.5796 145.889 35.2957C146.409 35.0332 146.953 34.8002 147.517 34.6526C147.953 34.532 148.508 34.5054 148.96 34.4701C149.172 34.4539 149.633 34.381 149.848 34.3501C150.101 34.3182 150.361 34.2877 150.614 34.3234C150.788 34.3467 150.955 34.4172 151.075 34.5487C151.292 34.7888 151.358 35.1223 151.405 35.4324C151.498 36.1522 151.471 36.9015 151.255 37.5975C151.148 37.94 150.963 38.2549 150.732 38.5283C150.37 38.9523 149.917 39.3605 149.589 39.8126C149.141 40.3947 148.684 41.063 148.047 41.4503C147.36 41.8781 146.442 42.0658 145.679 42.3116C144.776 42.5927 143.831 43.0862 142.982 43.5049" stroke="#CAB1AD" stroke-miterlimit="10" stroke-linecap="round" stroke-linejoin="round"/>
<path d="M113.9 34.4744C114.555 36.1931 115.297 37.929 116.189 39.5377C117.76 42.3754 120.23 45.6609 122.103 48.341C122.926 49.46 123.78 50.6056 124.785 51.5679C125.296 52.0476 125.861 52.502 126.53 52.7345C127.132 52.9494 127.791 52.9422 128.411 52.8112C130.007 52.4611 131.838 51.5236 133.35 50.8881C135.927 49.7768 138.889 48.7892 141.555 47.887C141.959 47.7431 142.385 47.5888 142.768 47.3978C142.938 47.313 143.109 47.2196 143.257 47.101C143.369 47.0119 143.47 46.9052 143.536 46.7775C143.59 46.6727 143.617 46.5556 143.624 46.4384C143.639 46.1797 143.582 45.921 143.526 45.67C143.253 44.5972 142.566 41.7152 142.253 40.6929C142.181 40.4728 142.109 40.2375 142.008 40.0288C141.954 39.9169 141.876 39.7854 141.743 39.7678C141.647 39.7544 141.552 39.7759 141.46 39.7983C141.347 39.8273 141.228 39.8721 141.118 39.9145C140.582 40.1289 139.865 40.4819 139.339 40.7296C138.222 41.2764 135.573 42.645 134.469 43.1005C133.48 43.5163 131.819 44.0794 130.789 44.4209C130.608 44.4705 130.418 44.5029 130.23 44.49C129.945 44.47 129.671 44.3552 129.441 44.1875C129.228 44.0341 129.064 43.8217 128.967 43.5778C128.862 43.3286 128.749 42.8789 128.663 42.6217C128.538 42.2325 128.369 41.8209 128.209 41.4441C127.667 40.1617 126.673 38.1743 126.328 36.8472C126.249 36.5337 126.203 36.2069 126.19 35.884C126.174 35.359 126.199 34.7674 126.133 34.2462C125.958 32.7495 125.588 31.2618 125.169 29.8165" stroke="#CAB1AD" stroke-miterlimit="10" stroke-linecap="round" stroke-linejoin="round"/>
<line x1="159.265" y1="37.2886" x2="223.148" y2="101.172" stroke="#E2363F" stroke-width="4" stroke-linecap="round"/>
</svg>
