<svg width="256" height="130" viewBox="0 0 256 130" fill="none" xmlns="http://www.w3.org/2000/svg">
<path d="M109.056 55.3783C111.794 49.3342 114.381 42.8927 116.54 36.6199" stroke="#E2363F" stroke-miterlimit="10" stroke-linecap="round" stroke-linejoin="round"/>
<path d="M107.191 58.6224L107.02 58.419C106.831 58.1913 106.655 57.9445 106.559 57.6625C106.475 57.4196 106.46 57.1571 106.48 56.9023C106.516 56.4688 106.637 56.0429 106.771 55.6308C107.009 54.9158 107.356 54.1222 107.654 53.4272C110.363 47.5264 113.895 39.5639 116.43 33.565" stroke="#E2363F" stroke-miterlimit="10" stroke-linecap="round" stroke-linejoin="round"/>
<path d="M119.544 79.3239L105.873 75.6501C105.843 75.6401 105.801 75.6315 105.772 75.6211C105.634 75.5791 105.497 75.5267 105.367 75.4667C104.93 75.2647 104.54 74.9603 104.238 74.585C103.85 74.1048 103.609 73.5084 103.555 72.8939C103.529 72.6085 103.543 72.3184 103.596 72.0364C103.61 71.9568 103.629 71.8735 103.65 71.7953C103.659 71.7615 107.542 57.3119 107.551 57.2809C107.566 57.2271 107.585 57.1656 107.603 57.1123C107.777 56.6045 108.083 56.1419 108.484 55.7851C109.04 55.2849 109.78 54.9953 110.529 54.9853C110.75 54.982 110.974 55.0015 111.19 55.0448C111.257 55.0586 111.33 55.0744 111.396 55.0929L115.785 56.2724" stroke="#E2363F" stroke-miterlimit="10" stroke-linecap="round" stroke-linejoin="round"/>
<path d="M129.782 88.3487C129.257 90.469 128.384 92.5974 127.543 94.6129C127.012 95.8634 126.357 97.0881 125.419 98.0832C124.595 98.9712 123.581 99.7586 122.62 100.497C121.127 101.618 119.531 102.837 118.198 104.135C116.324 105.929 114.574 108.043 112.943 110.064C111.029 112.46 109.024 115.087 107.269 117.601C107.119 117.795 106.96 118.004 106.732 118.108C106.595 118.171 106.439 118.176 106.293 118.148C105.937 118.076 105.619 117.878 105.32 117.68C104.404 117.043 103.576 116.234 102.773 115.462C102.449 115.132 100.592 113.309 100.325 112.998C100.177 112.828 100.033 112.647 99.9388 112.44C99.8859 112.324 99.8511 112.196 99.8521 112.067C99.8525 111.956 99.8816 111.846 99.9259 111.744C100.041 111.486 100.233 111.27 100.423 111.065C100.711 110.759 101.172 110.333 101.456 110.023C101.789 109.664 102.107 109.257 102.399 108.863C103.021 108.006 103.794 106.895 104.526 106.139C105.379 105.235 106.42 104.259 107.248 103.333C108.114 102.389 109.951 99.9806 110.769 98.954C111.667 97.8379 112.635 96.7323 113.72 95.7938L115.34 94.4033C116.053 93.7721 116.745 93.0742 117.088 92.1672C117.355 91.5108 117.501 90.6805 117.668 89.9917C117.835 89.2428 118.248 88.2172 118.514 87.4903C118.779 86.7662 118.973 86.0073 119.047 85.2389C119.185 83.8722 119.162 82.2674 119.324 80.905C119.591 78.5412 120.157 76.1537 120.786 73.8609" stroke="#E2363F" stroke-miterlimit="10" stroke-linecap="round" stroke-linejoin="round"/>
<path d="M100.481 113.17C100.364 113.228 100.124 113.341 100.005 113.395L98.3261 114.134C97.5863 114.47 96.8493 114.858 96.2539 115.419C95.7685 115.868 95.3574 116.4 95.0291 116.974C94.8591 117.279 94.6923 117.595 94.6047 117.934C94.5718 118.066 94.5552 118.205 94.5666 118.341C94.5771 118.475 94.6152 118.606 94.6671 118.73C94.7967 119.038 95.0006 119.311 95.2078 119.571C96.4563 121.07 98.3427 122.835 99.7414 124.22C100.307 124.783 100.878 125.389 101.361 126.026L102.165 127.099C102.46 127.482 102.777 127.86 103.166 128.15C103.536 128.43 103.962 128.634 104.407 128.762C105.059 128.951 105.75 128.989 106.425 128.997C107.221 128.993 109.689 129.011 110.442 128.987C110.684 128.976 110.938 128.962 111.177 128.927C111.361 128.899 111.549 128.862 111.717 128.779C111.844 128.718 111.955 128.622 112.024 128.498C112.086 128.388 112.119 128.263 112.14 128.139C112.177 127.91 112.186 127.668 112.192 127.435C112.196 127.083 112.185 126.721 112.137 126.371C112.113 126.207 112.084 126.038 112.015 125.885C111.958 125.757 111.861 125.654 111.736 125.59C111.669 125.554 111.597 125.527 111.524 125.504C111.245 125.417 110.928 125.361 110.639 125.307C109.784 125.157 108.499 124.963 107.668 124.757C107.51 124.715 107.347 124.667 107.197 124.602C106.899 124.475 106.663 124.237 106.466 123.986C106.348 123.83 106.246 123.659 106.186 123.472C106.142 123.335 106.125 123.189 106.123 123.045C106.112 122.59 106.279 121.495 106.324 121.031C106.424 120.089 106.469 119.112 106.465 118.163" stroke="#E2363F" stroke-miterlimit="10" stroke-linecap="round" stroke-linejoin="round"/>
<path d="M140.245 124.234C140.113 124.995 139.95 125.863 139.876 126.63C139.838 127.016 139.807 127.413 139.826 127.801C139.838 128.018 139.861 128.24 139.949 128.441C139.999 128.554 140.077 128.655 140.179 128.724C140.393 128.868 140.661 128.898 140.912 128.925C141.878 129.014 145.52 128.984 146.558 128.999C148.219 128.981 151.158 129.004 152.78 128.912C153.694 128.866 154.633 128.799 155.527 128.599C156.406 128.405 157.276 128.041 158.111 127.71C159.018 127.328 159.975 126.949 160.799 126.406C161.007 126.259 161.212 126.091 161.335 125.864C161.41 125.724 161.442 125.564 161.436 125.406C161.413 124.985 161.234 124.562 161.059 124.182C160.943 123.942 160.812 123.697 160.664 123.475C160.613 123.4 160.557 123.326 160.489 123.265C160.371 123.154 160.213 123.108 160.055 123.1C159.673 123.085 159.266 123.174 158.889 123.235C157.643 123.465 156.251 123.802 154.983 123.68C154.716 123.659 154.446 123.625 154.186 123.559C153.83 123.47 153.481 123.333 153.146 123.183C151.816 122.571 150.52 121.747 149.283 120.966" stroke="#E2363F" stroke-miterlimit="10" stroke-linecap="round" stroke-linejoin="round"/>
<path d="M117.668 66.4206C117.802 67.42 117.96 68.4404 118.27 69.3998C118.553 70.3006 118.976 71.1628 119.472 71.9646C120.63 73.8272 122.106 75.5406 123.576 77.1641C124.311 77.9816 125.496 79.1987 126.133 80.0709C126.817 80.9627 127.325 81.984 127.725 83.0315C128.303 84.5611 128.923 86.4776 129.608 87.9567C130.601 90.179 132.04 92.9795 132.865 95.258C133.304 96.4575 133.687 97.706 133.866 98.9732C134.035 100.174 134.091 101.631 134.278 102.828C134.447 103.939 134.729 105.079 135.018 106.165C135.942 109.303 137.312 114.312 138.069 117.48C138.399 118.808 139.033 120.745 139.462 122.062C139.56 122.379 139.661 122.732 139.732 123.055C139.78 123.259 139.811 123.523 139.876 123.723C139.932 123.911 140.038 124.085 140.199 124.201C140.509 124.421 140.909 124.506 141.28 124.559C141.99 124.647 142.731 124.604 143.404 124.35C144.198 124.047 144.893 123.468 145.629 123.053C146.579 122.499 147.763 122.093 148.693 121.503C148.944 121.334 149.206 121.142 149.341 120.863C149.42 120.697 149.431 120.506 149.395 120.328C149.355 120.12 149.265 119.922 149.168 119.734C148.571 118.644 147.455 117.052 146.823 115.976C146.648 115.68 146.476 115.365 146.337 115.05C146.12 114.565 145.982 114.041 145.938 113.51C145.85 112.397 145.929 111.212 145.732 110.108C145.442 108.216 144.443 105.413 143.895 103.559C143.626 102.655 143.101 101.233 142.846 100.323C142.793 100.111 142.751 99.8878 142.733 99.6692C142.682 99.0465 142.849 98.3448 142.92 97.7308C143.016 97.0067 143.001 96.2645 142.942 95.5376C142.82 93.9556 141.998 88.6674 141.784 87.0392C141.579 85.6673 141.331 84.1967 140.986 82.8519C140.27 79.8885 138.047 74.7037 136.971 71.8231C136.779 71.3019 136.58 70.7613 136.506 70.2087C136.466 69.9171 136.473 69.6175 136.496 69.325C136.53 68.9215 136.596 68.3827 136.572 67.9826C136.549 67.4867 136.454 66.9884 136.343 66.5054" stroke="#E2363F" stroke-miterlimit="10" stroke-linecap="round" stroke-linejoin="round"/>
<path d="M124.269 19.224C125.159 18.2308 125.773 16.997 125.988 15.6784" stroke="#E2363F" stroke-miterlimit="10" stroke-linecap="round" stroke-linejoin="round"/>
<path d="M127.859 15.0967C127.831 15.2634 127.79 15.4335 127.703 15.5802C127.651 15.6669 127.577 15.7431 127.481 15.7774C127.409 15.8041 127.332 15.8117 127.256 15.8117C127.061 15.8132 126.844 15.7617 126.651 15.7393C126.432 15.7036 126.154 15.7403 125.954 15.6669C125.771 15.6007 125.696 15.4073 125.648 15.2344C125.592 15.0276 125.566 14.8018 125.541 14.5889C125.491 14.0844 125.432 13.5023 125.309 13.015C125.128 12.2747 124.823 11.4711 124.663 10.726C124.507 10.0134 124.448 9.27406 124.471 8.54522C124.512 7.49864 124.699 6.37536 125.429 5.57602C125.653 5.32449 125.918 5.10823 126.195 4.9172C126.555 4.67044 127.015 4.41035 127.346 4.12595C127.754 3.77725 128.014 3.27183 128.39 2.89312C128.697 2.56966 129.069 2.3129 129.459 2.09901C129.894 1.86035 130.356 1.66266 130.823 1.49784C131.452 1.27871 132.105 1.11198 132.767 1.03576C133.209 0.988597 133.664 0.975736 134.099 1.07482C134.575 1.18057 134.994 1.45258 135.359 1.76746L135.857 2.20048C136.473 2.75592 137.316 3.06985 138.07 3.39473C138.602 3.62481 139.132 3.89587 139.546 4.30888C139.822 4.57993 140.049 4.90958 140.161 5.28258C140.271 5.64414 140.296 6.04857 140.471 6.3887C140.657 6.75169 141.027 7.03894 141.295 7.3381C141.46 7.5196 141.617 7.72253 141.683 7.96262C141.733 8.14793 141.724 8.34419 141.692 8.53188C141.618 8.96394 141.414 9.39315 141.297 9.81379C141.22 10.072 141.212 10.4035 141.059 10.6265C141.002 10.7094 140.922 10.7746 140.835 10.8246C140.623 10.9447 140.38 11.0014 140.14 11.0323C139.857 11.0657 139.565 11.0614 139.287 10.9937" stroke="#E2363F" stroke-miterlimit="10" stroke-linecap="round" stroke-linejoin="round"/>
<path d="M131.967 25.3386C132.493 25.6349 133.087 25.8526 133.654 26.0579C134.007 26.178 134.374 26.2833 134.747 26.319C134.969 26.339 135.2 26.3337 135.414 26.2613C135.935 26.0784 136.191 25.5301 136.401 25.0585C136.601 24.565 136.994 23.7032 137.147 23.2002C137.228 22.933 137.285 22.6538 137.287 22.3737C137.293 21.8102 137.091 21.2252 136.932 20.6897C136.874 20.4892 136.823 20.2639 136.917 20.0662C137.013 19.8685 137.193 19.7137 137.335 19.5493C137.457 19.4107 137.579 19.2606 137.627 19.0787C137.657 18.9648 137.646 18.8429 137.611 18.7314C137.552 18.5513 137.433 18.3803 137.262 18.2908C137.112 18.2098 136.947 18.2598 136.799 18.3198C136.666 18.3722 136.515 18.4413 136.375 18.4642C136.289 18.4799 136.2 18.4804 136.113 18.4713C135.694 18.4213 135.279 18.2193 134.867 18.1359C134.654 18.0888 134.433 18.0754 134.216 18.0993C133.881 18.1317 133.518 18.2426 133.185 18.2869C133.041 18.3051 132.892 18.3117 132.749 18.2817C132.335 18.196 132.048 17.8373 131.867 17.4766C131.677 17.0956 131.565 16.6759 131.52 16.2533C131.467 15.7532 131.514 15.2353 131.7 14.7656C131.896 14.2593 132.276 13.8524 132.662 13.4818C133.237 12.9335 133.941 12.3586 134.316 11.6497C134.504 11.3005 134.608 10.9109 134.685 10.5236C134.797 10.0001 134.834 9.30218 135.039 8.80533C135.095 8.67814 135.17 8.55476 135.281 8.46806C135.472 8.31991 135.728 8.30419 135.96 8.32705C136.469 8.38565 136.948 8.59477 137.407 8.81009C137.947 9.07209 138.501 9.37649 138.859 9.87239C139.395 10.6212 139.375 11.5992 139.278 12.4762C139.174 13.3041 139.041 14.1511 138.819 14.9557C138.746 15.2144 138.63 15.4826 138.632 15.7551C138.633 16.0371 138.741 16.431 138.797 16.7092C138.86 17.015 138.91 17.3314 138.928 17.6429C138.937 17.8196 138.939 18.0011 138.903 18.175C138.884 18.2698 138.846 18.3722 138.773 18.4361C138.692 18.5075 138.59 18.5328 138.488 18.5551C138.189 18.6147 137.881 18.6547 137.577 18.6428" stroke="#E2363F" stroke-miterlimit="10" stroke-linecap="round" stroke-linejoin="round"/>
<path d="M129.478 16.0199C129.039 16.0366 128.547 15.9847 128.214 15.6693C127.955 15.4178 127.831 15.0639 127.743 14.7223C127.632 14.2507 127.565 13.7624 127.556 13.2775C127.556 12.8516 127.599 12.3948 127.846 12.0346C128.003 11.8117 128.245 11.6564 128.507 11.5878C128.766 11.5197 129.052 11.533 129.293 11.655C129.543 11.7817 129.726 12.0084 129.858 12.2509C130.358 13.1846 130.219 14.2821 130.046 15.2839C129.943 15.887 129.828 16.5473 129.648 17.1308C129.523 17.5819 129.23 18.216 129.054 18.6533C128.9 19.0382 128.768 19.4393 128.703 19.8494C128.566 20.725 128.643 21.6272 128.842 22.4871" stroke="#E2363F" stroke-miterlimit="10" stroke-linecap="round" stroke-linejoin="round"/>
<path d="M131.779 28.6408C132.67 30.6373 133.389 32.7747 133.99 34.876C134.416 36.3727 134.829 37.9824 135.125 39.5087C135.437 41.1002 135.657 42.8018 135.806 44.4176" stroke="#E2363F" stroke-miterlimit="10" stroke-linecap="round" stroke-linejoin="round"/>
<path d="M121.735 21.8506C121.647 21.7239 121.636 21.561 121.65 21.4119C121.687 21.0703 121.823 20.7454 121.965 20.4358C122.153 20.0437 122.378 19.6617 122.666 19.3344C122.816 19.1696 122.985 19.0091 123.196 18.9281C123.388 18.8538 123.599 18.8843 123.786 18.9614C124.062 19.0734 124.327 19.2635 124.575 19.4268C126.574 20.7816 128.633 22.1931 130.412 23.829C130.736 24.1295 131.599 24.9446 131.91 25.2666C131.958 25.3219 131.999 25.3833 132.027 25.4505C132.072 25.5544 132.084 25.6692 132.088 25.7811C132.093 25.9902 132.066 26.2051 132.042 26.4128C131.999 26.7243 131.891 27.4189 131.866 27.7209C131.846 27.9257 131.83 28.314 131.801 28.5159C131.788 28.6007 131.774 28.6932 131.727 28.766C131.724 28.7703 131.723 28.7722 131.723 28.7722C131.72 28.776 131.719 28.7779 131.719 28.7779C131.716 28.7818 131.714 28.7832 131.714 28.7832C131.71 28.7865 131.709 28.7884 131.709 28.7884C131.706 28.7918 131.704 28.7932 131.704 28.7932C131.701 28.796 131.699 28.7975 131.699 28.7975C131.696 28.8003 131.694 28.8018 131.694 28.8018C131.69 28.8041 131.689 28.8056 131.689 28.8056C131.685 28.808 131.683 28.8089 131.683 28.8089C131.679 28.8108 131.678 28.8118 131.678 28.8118C131.674 28.8137 131.672 28.8146 131.672 28.8146C131.668 28.8161 131.666 28.817 131.666 28.817C131.662 28.8184 131.66 28.8189 131.66 28.8189C131.658 28.8194 131.655 28.8203 131.655 28.8203C131.651 28.8208 131.649 28.8218 131.649 28.8218C131.645 28.8222 131.642 28.8227 131.642 28.8227C131.639 28.8232 131.635 28.8232 131.635 28.8232C131.632 28.8232 131.629 28.8232 131.629 28.8232C131.625 28.8232 131.621 28.8232 131.621 28.8232C131.618 28.8232 131.614 28.8227 131.614 28.8227C131.61 28.8222 131.607 28.8218 131.607 28.8218C131.603 28.8213 131.599 28.8203 131.599 28.8203C131.596 28.8194 131.592 28.8189 131.592 28.8189C131.588 28.818 131.584 28.817 131.584 28.817C131.479 28.7851 131.394 28.7098 131.312 28.6398C131.15 28.4959 130.99 28.3187 130.844 28.1568C130.32 27.5561 129.732 26.8496 129.175 26.2827C128.174 25.2547 127.068 24.301 125.826 23.5741C124.73 22.9362 123.522 22.4789 122.299 22.1483C122.099 22.0864 121.863 22.0269 121.735 21.8506Z" stroke="#E2363F" stroke-miterlimit="10" stroke-linecap="round" stroke-linejoin="round"/>
<path d="M136.657 51.6322C136.991 52.8331 137.271 54.2646 137.51 55.4946C137.712 56.6579 138.02 58.1656 138.169 59.3313C138.359 60.7947 138.442 62.3119 138.075 63.7548C137.894 64.4627 137.602 65.1534 137.149 65.7322C136.835 66.1371 136.438 66.4796 135.989 66.7274C135.277 67.1223 134.47 67.3138 133.67 67.4319C132.735 67.5672 131.745 67.601 130.8 67.6163C128.597 67.6329 126.234 67.5829 124.039 67.4271C122.329 67.2985 120.563 67.117 118.887 66.7459C117.565 66.4558 116.252 65.9899 115.156 65.1777C114.869 64.9643 114.59 64.728 114.343 64.4684C114.248 64.3655 114.16 64.2507 114.107 64.1192C114.043 63.9659 114.026 63.7972 114.028 63.6329C114.031 63.368 114.078 63.0984 114.126 62.8383C114.311 61.8527 114.966 59.6962 115.235 58.702C115.849 56.4955 116.136 54.1646 116.319 51.8847C116.576 48.8112 116.758 45.528 116.769 42.4436C116.795 40.4409 116.595 37.4641 116.476 35.4352C116.421 34.2615 116.399 33.0467 116.498 31.8754C116.622 30.3786 116.962 28.8909 117.48 27.4818C117.876 26.4138 118.375 25.3648 119.029 24.4293C119.742 23.3951 120.711 22.5662 121.735 21.8516" stroke="#E2363F" stroke-miterlimit="10" stroke-linecap="round" stroke-linejoin="round"/>
<path d="M154.173 34.4473L157.465 30.9283C157.485 30.9064 157.508 30.885 157.532 30.8664C157.61 30.8054 157.703 30.7649 157.8 30.7487C158.038 30.7073 158.289 30.8259 158.407 31.0355C158.467 31.1384 158.495 31.2599 158.485 31.3785C158.477 31.48 158.442 31.5795 158.385 31.6638C158.368 31.6886 158.348 31.7134 158.328 31.7353L155.848 34.3868" stroke="#E2363F" stroke-miterlimit="10" stroke-linecap="round" stroke-linejoin="round"/>
<path d="M146.951 39.9255L147.143 39.632C147.606 38.9484 148.433 37.7775 148.81 37.0596C148.964 36.7967 149.142 36.5437 149.36 36.3294C149.802 35.8983 150.345 35.5796 150.889 35.2957C151.409 35.0332 151.953 34.8002 152.517 34.6526C152.953 34.532 153.508 34.5054 153.96 34.4701C154.172 34.4539 154.633 34.381 154.848 34.3501C155.101 34.3182 155.361 34.2877 155.614 34.3234C155.788 34.3467 155.955 34.4172 156.075 34.5487C156.292 34.7888 156.358 35.1223 156.405 35.4324C156.498 36.1522 156.471 36.9015 156.255 37.5975C156.148 37.94 155.963 38.2549 155.732 38.5283C155.37 38.9523 154.917 39.3605 154.589 39.8126C154.141 40.3947 153.684 41.063 153.047 41.4503C152.36 41.8781 151.442 42.0658 150.679 42.3116C149.776 42.5927 148.831 43.0862 147.982 43.5049" stroke="#E2363F" stroke-miterlimit="10" stroke-linecap="round" stroke-linejoin="round"/>
<path d="M118.9 34.4744C119.555 36.1931 120.297 37.929 121.189 39.5377C122.76 42.3754 125.23 45.6609 127.103 48.341C127.926 49.46 128.78 50.6056 129.785 51.5679C130.296 52.0476 130.861 52.502 131.53 52.7345C132.132 52.9494 132.791 52.9422 133.411 52.8112C135.007 52.4611 136.838 51.5236 138.35 50.8881C140.927 49.7768 143.889 48.7892 146.555 47.887C146.959 47.7431 147.385 47.5888 147.768 47.3978C147.938 47.313 148.109 47.2196 148.257 47.101C148.369 47.0119 148.47 46.9052 148.536 46.7775C148.59 46.6727 148.617 46.5556 148.624 46.4384C148.639 46.1797 148.582 45.921 148.526 45.67C148.253 44.5972 147.566 41.7152 147.253 40.6929C147.181 40.4728 147.109 40.2375 147.008 40.0288C146.954 39.9169 146.876 39.7854 146.743 39.7678C146.647 39.7544 146.552 39.7759 146.46 39.7983C146.347 39.8273 146.228 39.8721 146.118 39.9145C145.582 40.1289 144.865 40.4819 144.339 40.7296C143.222 41.2764 140.573 42.645 139.469 43.1005C138.48 43.5163 136.819 44.0794 135.789 44.4209C135.608 44.4705 135.418 44.5029 135.23 44.49C134.945 44.47 134.671 44.3552 134.441 44.1875C134.228 44.0341 134.064 43.8217 133.967 43.5778C133.862 43.3286 133.749 42.8789 133.663 42.6217C133.538 42.2325 133.369 41.8209 133.209 41.4441C132.667 40.1617 131.673 38.1743 131.328 36.8472C131.249 36.5337 131.203 36.2069 131.19 35.884C131.174 35.359 131.199 34.7674 131.133 34.2462C130.958 32.7495 130.588 31.2618 130.169 29.8165" stroke="#E2363F" stroke-miterlimit="10" stroke-linecap="round" stroke-linejoin="round"/>
<line x1="162.144" y1="36.5815" x2="228.855" y2="103.293" stroke="#36E2DE" stroke-width="2" stroke-dasharray="4 4"/>
</svg>
