<svg class="icon icon-search" width="24" height="24" viewBox="0 0 24 24" xmlns="http://www.w3.org/2000/svg">
  <path fill="currentColor" fill-rule="evenodd" clip-rule="evenodd" d="M4.99995 10.0001C4.99995 7.2387 7.23853 5.00012 9.99995 5.00012C12.7614 5.00012 15 7.2387 15 10.0001C15 12.7615 12.7614 15.0001 9.99995 15.0001C7.23853 15.0001 4.99995 12.7615 4.99995 10.0001ZM9.99995 3.00012C6.13396 3.00012 2.99995 6.13413 2.99995 10.0001C2.99995 13.8661 6.13396 17.0001 9.99995 17.0001C11.5723 17.0001 13.0236 16.4817 14.1922 15.6065L19.7782 21.1925L21.1924 19.7783L15.6064 14.1922C16.4816 13.0237 17 11.5724 17 10.0001C17 6.13413 13.8659 3.00012 9.99995 3.00012Z"/>
</svg>
